<svg xmlns="http://www.w3.org/2000/svg"><style>:root svg:not(:target){display:none}</style><svg aria-label="Доступно в AppStore." fill="none" id="app-store" viewBox="0 0 100 34"><path fill-rule="evenodd" clip-rule="evenodd" d="M93.019.978H6.989C1.855.978 1 2.71 1 6.832v20.35C1 31.301 2.759 33 6.984 33h86.035c4.228 0 6.049-1.702 6.049-5.823V6.832c0-4.121-1.822-5.854-6.05-5.854Z" fill="#000"></path><path fill-rule="evenodd" clip-rule="evenodd" d="M26.568 20.91c-.494 1.068-.73 1.544-1.366 2.487-.888 1.317-2.138 2.957-3.688 2.97-1.377.013-1.73-.873-3.6-.863-1.868.01-2.258.88-3.636.867-1.55-.014-2.734-1.495-3.622-2.811-2.481-3.682-2.74-8.004-1.21-10.3 1.088-1.633 2.803-2.59 4.416-2.59 1.643 0 2.675.879 4.033.879 1.317 0 2.12-.88 4.02-.88 1.434 0 2.955.762 4.04 2.08-3.551 1.896-2.975 6.84.613 8.161Z" fill="#fff"></path><path fill-rule="evenodd" clip-rule="evenodd" d="M20.474 9.199c.69-.863 1.213-2.083 1.023-3.329-1.126.076-2.445.775-3.215 1.686-.698.828-1.275 2.054-1.05 3.247 1.23.037 2.503-.68 3.242-1.604ZM44.104 19.678c-.41 0-.78.132-1.115.397a1.858 1.858 0 0 0-.656 1.046 2.13 2.13 0 0 0-.077.497v1.213c0 .532.165.98.5 1.346.334.362.769.546 1.301.546.625 0 1.116-.234 1.465-.706.348-.47.522-1.09.522-1.863 0-.708-.162-1.294-.491-1.753a1.727 1.727 0 0 0-1.45-.723Zm30.425-.1c-.666 0-1.174.287-1.521.867-.301.477-.448 1.06-.448 1.748 0 .671.147 1.243.448 1.721.355.579.859.867 1.508.867.632 0 1.133-.292 1.49-.885.31-.484.464-1.065.464-1.731 0-.668-.148-1.243-.444-1.72-.354-.58-.85-.868-1.497-.868Zm-22.203.1c-.412 0-.78.132-1.115.397a1.87 1.87 0 0 0-.661 1.046 2.131 2.131 0 0 0-.081.497v1.213c0 .532.17.98.505 1.346.333.362.77.546 1.301.546.63 0 1.118-.234 1.467-.706.35-.47.526-1.09.526-1.863 0-.708-.165-1.294-.493-1.753a1.73 1.73 0 0 0-1.449-.723Zm-17.181-2.595h-.03c-.104.471-.266 1.098-.493 1.94l-.863 2.675h2.786l-.874-2.676c-.094-.271-.27-.997-.526-1.939Zm51.994 2.415c-.543 0-.984.271-1.324.709-.277.349-.443.738-.493 1.303h3.464c.009-.565-.096-.938-.322-1.29a1.507 1.507 0 0 0-1.325-.722Zm-49.33 6.25-.969-2.92h-3.373l-.925 2.92H30.82l3.338-10.078h2.065l3.358 10.078h-1.772Zm8.892-.708c-.618.637-1.39.958-2.307.958-.994 0-1.655-.345-2.138-1.038v3.896h-1.642v-7.92c0-.78-.038-1.498-.08-2.44h1.462l.092 1.224h.029c.557-.847 1.397-1.315 2.528-1.315.882 0 1.617.33 2.21 1.013.589.678.885 1.573.885 2.683 0 1.244-.346 2.217-1.04 2.939Zm8.22 0c-.62.637-1.393.958-2.312.958-.99 0-1.657-.345-2.14-1.038v3.896h-1.643v-7.92c0-.78-.03-1.498-.07-2.44h1.458l.096 1.224h.029c.558-.847 1.397-1.315 2.526-1.315.883 0 1.62.33 2.21 1.013.59.678.885 1.573.885 2.683 0 1.244-.345 2.217-1.039 2.939Zm9.607.056c-.68.592-1.62.885-2.828.885-1.119 0-2.013-.21-2.689-.629l.386-1.35c.728.418 1.528.63 2.399.63.629 0 1.115-.14 1.464-.412.347-.274.522-.642.522-1.108 0-.404-.144-.75-.43-1.032-.29-.28-.763-.537-1.43-.78-1.816-.658-2.725-1.624-2.725-2.894 0-.83.317-1.513.96-2.043.642-.529 1.49-.795 2.549-.795.944 0 1.73.162 2.357.48l-.42 1.32c-.585-.308-1.25-.465-1.991-.465-.587 0-1.046.145-1.377.419a1.2 1.2 0 0 0-.415.918c0 .397.16.729.477.993.278.239.78.497 1.507.777.896.348 1.55.76 1.973 1.232.42.47.63 1.054.63 1.753 0 .862-.308 1.564-.92 2.101Zm5.844-5.282h-1.74V23.3c0 .9.287 1.346.934 1.346.298 0 .522-.022.719-.071l.037 1.227c-.329.12-.764.181-1.298.181-.653 0-1.188-.192-1.556-.585-.373-.388-.574-1.045-.574-1.965v-3.618H65.83v-1.318h1.063v-1.292l1.739-.48v1.772h1.739v1.318Zm6.838 5.076c-.689.738-1.602 1.108-2.74 1.108-1.1 0-1.977-.355-2.628-1.066-.65-.708-.975-1.607-.975-2.686 0-1.13.335-2.056 1.007-2.775.673-.724 1.576-1.079 2.716-1.079 1.102 0 1.984.352 2.65 1.065.635.687.954 1.58.954 2.67 0 1.123-.327 2.04-.984 2.763Zm6.012-4.926c-.096-.03-.353-.041-.536-.041-.585 0-1.042.215-1.36.644-.279.381-.423.854-.423 1.44v3.74h-1.642v-4.914c0-.836-.036-1.584-.065-2.337h1.447l.061 1.507h.046c.174-.471.45-.9.831-1.187.37-.263.785-.406 1.216-.406.152 0 .329-.01.425.01v1.544Zm7.09 2.676h-4.99c.02.66.261 1.237.725 1.616.42.341.963.497 1.63.497.741 0 1.411-.122 2.018-.356l.261 1.124c-.705.302-1.544.447-2.51.447-1.158 0-2.07-.332-2.731-.997-.662-.665-.995-1.558-.995-2.678 0-1.103.31-2.016.923-2.75.65-.779 1.522-1.168 2.619-1.168 1.08 0 1.896.389 2.448 1.168.44.622.662 1.419.662 2.33 0 .287-.021.578-.06.767Z" fill="#fff"></path><path d="M33.55 9.562c0 .713-.079 1.355-.254 1.905-.103.341-.254.674-.397.93h2.042V8.741h-1.39v.82Zm2.368-1.604v4.462l.509.023-.056 2.03h-.747l-.055-1.294h-3.25l-.056 1.294h-.747l-.048-2.03.43-.023c.206-.364.397-.743.516-1.154.167-.558.23-1.193.23-1.944V7.958h3.274ZM37.882 11.297c0 .728.365 1.278.961 1.278.556 0 .946-.534.946-1.294 0-.588-.27-1.262-.938-1.262-.691 0-.97.65-.97 1.278Zm2.916-.039c0 1.387-1.001 2.007-1.987 2.007-1.096 0-1.939-.736-1.939-1.945 0-1.24.835-1.998 2.003-1.998 1.152 0 1.923.79 1.923 1.936ZM44.446 13.063c-.207.093-.612.194-1.097.194-1.208 0-1.995-.752-1.995-1.921 0-1.131.795-2.014 2.154-2.014.357 0 .723.077.946.178l-.175.713a1.76 1.76 0 0 0-.74-.148c-.746 0-1.191.535-1.183 1.224 0 .775.516 1.216 1.184 1.216.341 0 .58-.07.77-.147l.136.705ZM48.157 9.407v.736h-1.16v3.036h-.978v-3.036h-1.16v-.736h3.298ZM49.492 9.407l.7 2.022c.079.232.158.519.214.736h.023c.064-.217.136-.496.207-.744l.604-2.014h1.049l-.97 2.572c-.532 1.41-.89 2.037-1.35 2.424a1.99 1.99 0 0 1-1.026.488l-.222-.806c.167-.038.373-.123.572-.263.183-.116.398-.34.533-.596a.376.376 0 0 0 .063-.17.396.396 0 0 0-.056-.187L48.42 9.407h1.073ZM56.263 9.407v3.772h-.986v-3.036h-1.454v3.036h-.977V9.407h3.417ZM58.273 9.407v1.44h1.494v-1.44h.977v3.772h-.977v-1.588h-1.494v1.588h-.977V9.407h.977ZM62.549 11.297c0 .728.365 1.278.961 1.278.556 0 .946-.534.946-1.294 0-.588-.27-1.262-.938-1.262-.691 0-.97.65-.97 1.278Zm2.916-.039c0 1.387-1.001 2.007-1.987 2.007-1.096 0-1.939-.736-1.939-1.945 0-1.24.835-1.998 2.003-1.998 1.152 0 1.923.79 1.923 1.936ZM68.858 10.933h.406c.5 0 .914-.14.914-.496 0-.302-.27-.465-.85-.465-.191 0-.319.016-.47.031v.93Zm-.008 1.673c.16.015.279.023.477.023.445 0 .986-.116.986-.557 0-.426-.43-.566-1.041-.566h-.422v1.1Zm-.945-3.153c.286-.046.874-.093 1.406-.093.652 0 1.828.086 1.828.953 0 .48-.381.752-.795.837v.015c.573.086.97.395.97.922 0 1.038-1.399 1.139-2.177 1.139-.485 0-1.002-.031-1.232-.055V9.454Z" fill="#fff"></path></svg><svg aria-label="Facebook." fill="none" id="facebook" viewBox="0 0 26 26"><path d="M21.35 25.555a78.532 78.532 0 0 1-16.7 0 4.734 4.734 0 0 1-4.205-4.206 78.529 78.529 0 0 1 0-16.699A4.734 4.734 0 0 1 4.65.445a78.529 78.529 0 0 1 16.7 0 4.734 4.734 0 0 1 4.205 4.205 78.53 78.53 0 0 1 0 16.7 4.734 4.734 0 0 1-4.206 4.205Z" fill="url(#facebook_0)"></path><path d="M24.14 5.59a4.2 4.2 0 0 0-3.73-3.73 69.712 69.712 0 0 0-14.82 0 4.201 4.201 0 0 0-3.73 3.73 69.71 69.71 0 0 0 0 14.819 4.201 4.201 0 0 0 3.73 3.732c4.935.526 9.885.526 14.819 0a4.2 4.2 0 0 0 3.732-3.732 69.678 69.678 0 0 0 0-14.818Z" fill="url(#facebook_1)"></path><path d="M.39 20.81c.017.18.036.36.055.54a4.734 4.734 0 0 0 4.206 4.205 78.53 78.53 0 0 0 16.698 0 4.734 4.734 0 0 0 4.206-4.205c.02-.18.038-.36.056-.54H.39Z" fill="url(#facebook_2)"></path><path d="M17.48 4.33a4.102 4.102 0 0 0-4.102 4.102v3.064h-2.207v3.793l2.207 1.977v8.733a78.715 78.715 0 0 0 7.971-.444 4.734 4.734 0 0 0 4.206-4.206c.441-4.137.554-8.284.339-12.426L21.3 4.33H17.48Z" fill="url(#facebook_3)"></path><path d="M13.378 25.999a78.418 78.418 0 0 0 4.544-.154V15.289h3.015l.364-3.793h-3.38v-2.41c0-.531.432-.962.964-.962h2.416V4.33H17.48a4.102 4.102 0 0 0-4.102 4.102v3.064h-2.207v3.793h2.207v10.71Z" fill="#fff"></path><defs><linearGradient id="facebook_0" x1="8.633" y1="3.656" x2="15.209" y2="17.725" gradientUnits="userSpaceOnUse"><stop stop-color="#3457A0"></stop><stop offset="1" stop-color="#3B5998"></stop></linearGradient><linearGradient id="facebook_1" x1="17.932" y1="16.389" x2="-4.796" y2=".772" gradientUnits="userSpaceOnUse"><stop stop-color="#3457A0" stop-opacity="0"></stop><stop offset="1" stop-color="#1F3F77"></stop></linearGradient><linearGradient id="facebook_2" x1="13" y1="21.728" x2="13" y2="25.246" gradientUnits="userSpaceOnUse"><stop stop-color="#3457A0" stop-opacity="0"></stop><stop offset="1" stop-color="#1F3F77"></stop></linearGradient><linearGradient id="facebook_3" x1="29.848" y1="21.472" x2="11.802" y2="12.372" gradientUnits="userSpaceOnUse"><stop stop-color="#3457A0" stop-opacity="0"></stop><stop offset=".325" stop-color="#2A4C8D" stop-opacity=".325"></stop><stop offset=".705" stop-color="#22427D" stop-opacity=".706"></stop><stop offset="1" stop-color="#1F3F77"></stop></linearGradient></defs></svg><svg aria-label="Флаг России." fill="none" id="flag" viewBox="0 0 20 13"><path d="M20 4.333H0V.343C0 .152.154 0 .345 0h19.31c.19 0 .345.153.345.342v3.991Z" fill="#F5F5F5"></path><path d="M19.655 13H.345A.344.344 0 0 1 0 12.658V8.667h20v3.99a.344.344 0 0 1-.345.343Z" fill="#FF4B55"></path><path d="M20 4.333H0v4.333h20V4.333Z" fill="#41479B"></path></svg><svg aria-label="Android приложение в Google Play." fill="none" id="google-play" viewBox="0 0 100 34"><path fill-rule="evenodd" clip-rule="evenodd" d="M93.019.978H6.989C1.855.978 1 2.71 1 6.832v20.35C1 31.301 2.759 33 6.984 33h86.035c4.228 0 6.049-1.702 6.049-5.823V6.832c0-4.121-1.822-5.854-6.05-5.854Z" fill="#000"></path><path d="M9.41 7.34a.565.565 0 0 0-.39.534V26.55c0 .257.168.456.385.533l10.178-9.874-10.172-9.87Z" fill="#00D6FF"></path><path d="M22.45 14.427 9.89 7.383a.586.586 0 0 0-.48-.044l10.173 9.87 2.867-2.782Z" fill="#00F076"></path><path d="m9.891 27.042 12.564-7.047-2.872-2.786-10.178 9.874a.586.586 0 0 0 .486-.041Z" fill="#FF3A44"></path><path d="m22.455 19.995 4.086-2.292a.56.56 0 0 0 0-.982l-4.09-2.294-2.868 2.782 2.872 2.786Z" fill="#FFD000"></path><path d="M78.56 25.326h1.424v-9.132H78.56v9.133Zm12.591-5.844-1.574 3.945h-.075l-1.649-3.945h-1.499l2.474 5.552-1.424 3.069h1.424l3.822-8.621h-1.499Zm-7.87 4.822c-.45 0-1.124-.22-1.124-.804 0-.73.825-.95 1.5-.95.599 0 .898.146 1.273.292-.15.877-.9 1.462-1.649 1.462Zm.15-5.041c-1.049 0-2.098.438-2.473 1.388l1.274.511c.3-.511.75-.657 1.274-.657.75 0 1.424.438 1.5 1.169v.073c-.225-.147-.825-.366-1.425-.366-1.349 0-2.698.73-2.698 2.046 0 1.242 1.124 2.046 2.324 2.046.974 0 1.424-.439 1.798-.877h.075v.73h1.35V21.82c-.15-1.608-1.425-2.558-2.999-2.558Zm-8.619 1.315H72.79v-3.142h2.023c1.05 0 1.65.877 1.65 1.534-.076.804-.675 1.608-1.65 1.608Zm-.075-4.384h-3.372v9.133h1.424v-3.434h1.948c1.574 0 3.073-1.096 3.073-2.85 0-1.753-1.499-2.85-3.073-2.85Zm-18.287 8.11c-.975 0-1.8-.804-1.8-1.9 0-1.096.825-1.9 1.8-1.9.974 0 1.723.804 1.723 1.9 0 1.096-.75 1.9-1.723 1.9Zm1.648-4.31c-.374-.366-.974-.732-1.723-.732-1.574 0-3.073 1.389-3.073 3.142a3.064 3.064 0 0 0 3.073 3.069c.75 0 1.349-.366 1.648-.731h.075v.438c0 1.17-.674 1.827-1.723 1.827-.825 0-1.424-.585-1.574-1.096l-1.2.511c.375.804 1.275 1.827 2.849 1.827 1.648 0 2.997-.95 2.997-3.215v-5.552h-1.349v.511Zm2.249 5.332h1.424v-9.132h-1.424v9.133Zm3.523-2.995c0-1.169.974-1.826 1.648-1.826.525 0 1.05.292 1.2.657l-2.848 1.169Zm4.347-1.023c-.3-.73-1.05-1.973-2.699-1.973-1.648 0-2.998 1.243-2.998 3.142 0 1.753 1.35 3.142 3.148 3.142 1.424 0 2.324-.877 2.624-1.389l-1.05-.73c-.374.511-.824.877-1.574.877-.75 0-1.199-.293-1.574-.95l4.273-1.753-.15-.366ZM34.19 20.285V21.6h3.223c-.075.731-.375 1.316-.75 1.68-.45.44-1.2.95-2.473.95-2.024 0-3.523-1.534-3.523-3.506 0-1.973 1.574-3.507 3.523-3.507 1.049 0 1.873.438 2.473.95l.974-.95c-.824-.73-1.873-1.315-3.373-1.315-2.698 0-5.021 2.191-5.021 4.822 0 2.63 2.323 4.822 5.021 4.822 1.5 0 2.549-.439 3.448-1.389.9-.876 1.2-2.118 1.2-3.068 0-.292 0-.584-.075-.804H34.19Zm8.319 4.019c-.974 0-1.799-.804-1.799-1.9 0-1.096.825-1.9 1.799-1.9s1.799.731 1.799 1.9c0 1.096-.825 1.9-1.799 1.9Zm0-4.968c-1.799 0-3.223 1.315-3.223 3.141 0 1.753 1.424 3.142 3.223 3.142s3.223-1.315 3.223-3.142c0-1.9-1.424-3.142-3.223-3.142Zm6.97 4.968c-.974 0-1.798-.804-1.798-1.9 0-1.096.824-1.9 1.798-1.9.975 0 1.8.731 1.8 1.9 0 1.096-.825 1.9-1.8 1.9Zm0-4.968c-1.798 0-3.222 1.315-3.222 3.141 0 1.753 1.424 3.142 3.222 3.142 1.8 0 3.223-1.315 3.223-3.142 0-1.9-1.424-3.142-3.223-3.142ZM31.353 11.997h-1.074l.537-1.444.537 1.444Zm-.835-2.166-1.41 3.673h.622l.356-.942h1.464l.351.942h.624l-1.411-3.673h-.596ZM35.203 11.974l.002.536-1.726-2.679h-.691v3.673h.58v-2.272l-.001-.539 1.81 2.811h.606V9.831h-.58v2.143ZM37.54 12.94h-.598v-2.544h.598c.405 0 .73.105.966.332.235.226.355.542.355.947 0 .408-.12.715-.355.94-.236.224-.56.324-.966.324Zm0-3.109h-1.178v3.673h1.178c.57 0 1.034-.176 1.378-.513.343-.337.518-.782.518-1.318 0-.537-.175-.989-.518-1.325-.344-.337-.808-.517-1.378-.517ZM41.797 10.95c0 .17-.06.303-.185.414a.644.644 0 0 1-.449.162h-.743v-1.13h.774c.184 0 .327.049.438.169.11.12.165.243.165.386Zm.314.688c.173-.198.261-.43.261-.688 0-.316-.119-.59-.354-.799a1.229 1.229 0 0 0-.834-.32h-1.247v3.673h.483v-1.413h.483l.983 1.413h.66v-.092l-1.014-1.41c.234-.058.419-.18.58-.364ZM44.579 13.042c-.376 0-.698-.129-.959-.383-.257-.258-.388-.59-.388-.99 0-.398.132-.73.391-.986.26-.255.58-.385.956-.385.375 0 .696.13.955.386.26.255.39.587.39.986s-.13.73-.39.986c-.259.256-.58.386-.955.386Zm0-3.275c-.544 0-1.005.186-1.371.553-.365.366-.55.82-.55 1.35 0 .53.184.984.55 1.35.366.367.827.553 1.37.553.544 0 1.005-.186 1.371-.553.366-.366.55-.82.55-1.35 0-.526-.185-.98-.552-1.348a1.865 1.865 0 0 0-1.368-.555ZM46.99 13.504h.58V9.831h-.58v3.673ZM49.322 12.94h-.593v-2.544h.593c.406 0 .73.105.966.332.236.226.355.542.355.947 0 .408-.12.715-.354.94-.236.224-.561.324-.967.324Zm0-3.109H48.15v3.673h1.172c.57 0 1.034-.176 1.378-.513.344-.337.518-.782.518-1.318 0-.537-.174-.989-.518-1.325-.344-.337-.807-.517-1.378-.517ZM52.787 13.504h.58v-3.108h1.643v3.108h.483V9.831h-2.706v3.673ZM57.903 11.347a.562.562 0 0 1-.437.18h-.717v-1.13h.717c.184 0 .327.048.437.168.11.12.166.248.166.39 0 .146-.054.27-.166.392Zm-.447-1.516h-1.287v3.673h.58v-1.413h.706c.32 0 .6-.123.835-.33.235-.209.354-.485.354-.801 0-.317-.12-.596-.354-.804a1.233 1.233 0 0 0-.834-.325ZM59.608 12.51l.04-.537V9.83h-.58v3.673h.532l1.798-2.81-.012.54v2.27h.58V9.831h-.67l-1.688 2.68ZM63.029 12.018c0 .247-.055.453-.161.611-.108.16-.28.3-.505.418l-.048.025.321.475.038-.02c.298-.145.541-.339.695-.577.153-.238.24-.552.24-.933v-1.62h1.352v3.107h.58V9.831H63.03v2.187ZM67.925 13.042c-.375 0-.697-.129-.958-.383-.257-.258-.388-.59-.388-.99 0-.398.131-.73.39-.986.26-.255.581-.385.956-.385s.697.13.956.386c.259.255.39.587.39.986s-.131.73-.39.986c-.26.256-.58.386-.956.386Zm0-3.275c-.544 0-1.005.186-1.37.553-.366.366-.551.82-.551 1.35 0 .53.185.984.55 1.35.366.367.827.553 1.371.553s1.005-.186 1.37-.553c.366-.366.552-.82.552-1.35 0-.526-.187-.98-.554-1.348a1.864 1.864 0 0 0-1.368-.555ZM74.623 9.93v-.099h-.685l-1.344 1.679V9.83h-.58v1.679l-1.32-1.653-.007-.026h-.605v.1l1.444 1.777-1.54 1.7v.096h.68l1.349-1.58v1.58h.58v-1.58l1.365 1.58h.663v-.095l-1.492-1.7 1.492-1.779ZM74.913 13.504h2.222v-.565h-1.642v-1.036h1.449v-.47h-1.45v-1.037h1.643v-.565h-2.222v3.673ZM79.937 11.338h-1.739V9.83h-.483v3.673h.483v-1.601h1.74v1.601h.579V9.831h-.58v1.507ZM81.738 12.51l.035-.537V9.83h-.58v3.673h.542l1.793-2.81-.016.54v2.27h.58V9.831h-.66l-1.694 2.68ZM84.671 13.504h2.223v-.565H85.25v-1.036h1.546v-.47h-1.546v-1.037h1.643v-.565H84.67v3.673ZM90.452 12.783c-.103.113-.235.156-.402.156h-.934v-1.036h.914c.174 0 .31.048.417.16.108.113.16.224.16.358a.514.514 0 0 1-.155.362Zm-.104-1.585c-.098.105-.226.14-.39.14h-.842v-.942h.863c.156 0 .279.04.374.144a.461.461 0 0 1 .143.328c0 .124-.049.224-.148.33Zm.651.701a.966.966 0 0 0-.385-.293.887.887 0 0 0 .303-.272.81.81 0 0 0 .143-.473c0-.29-.11-.543-.329-.735a1.144 1.144 0 0 0-.772-.295h-1.326v3.673h1.397c.31 0 .581-.106.808-.305a.977.977 0 0 0 .345-.762.848.848 0 0 0-.184-.538Z" fill="#fff"></path></svg><svg aria-label="Instagram logo." fill="none" id="instagram" viewBox="0 0 26 26"><path d="M25.555 4.65A4.734 4.734 0 0 0 21.349.445a78.529 78.529 0 0 0-16.698 0A4.734 4.734 0 0 0 .445 4.65a78.529 78.529 0 0 0 0 16.7 4.734 4.734 0 0 0 4.205 4.205c5.561.593 11.139.593 16.7 0a4.734 4.734 0 0 0 4.205-4.206 78.53 78.53 0 0 0 0-16.699Z" fill="url(#instagram_7)"></path><path d="M24.14 5.59a4.2 4.2 0 0 0-3.73-3.73 69.712 69.712 0 0 0-14.82 0 4.201 4.201 0 0 0-3.73 3.73 69.71 69.71 0 0 0 0 14.819 4.201 4.201 0 0 0 3.73 3.732c4.935.526 9.885.526 14.819 0a4.2 4.2 0 0 0 3.732-3.732 69.678 69.678 0 0 0 0-14.818Z" fill="url(#instagram_0)"></path><path d="M.39 20.81c.017.18.036.36.055.54a4.734 4.734 0 0 0 4.206 4.205 78.53 78.53 0 0 0 16.698 0 4.734 4.734 0 0 0 4.206-4.205c.02-.18.038-.36.056-.54H.39Z" fill="url(#instagram_1)"></path><path d="M25.555 21.35c.319-2.989.466-5.981.442-8.974l-5.943-5.943c-.742-.847-1.827-1.376-3.101-1.422-2.62-.095-5.25-.09-7.87 0-2.177.075-3.7 1.538-4.09 3.689-.069.38-.11.764-.164 1.147v6.304c.03.204.074.408.087.613.088 1.308.625 2.428 1.486 3.186l6.048 6.048c2.968.02 5.936-.127 8.9-.443a4.734 4.734 0 0 0 4.205-4.206Z" fill="url(#instagram_2)"></path><path d="M25.555 21.35a4.734 4.734 0 0 1-4.206 4.205 78.647 78.647 0 0 1-8.9.443l-6.038-6.039c.7.613 1.613.986 2.672 1.026 2.62.099 5.25.096 7.87.002 2.37-.086 4.085-1.84 4.16-4.21.078-2.517.078-5.04 0-7.556-.035-1.094-.418-2.056-1.055-2.784l5.94 5.94a78.755 78.755 0 0 1-.443 8.972Z" fill="url(#instagram_3)"></path><path d="M16.068 10.185a4.165 4.165 0 1 0-5.883 5.883l9.635 9.635c.51-.044 1.02-.094 1.53-.148a4.734 4.734 0 0 0 4.205-4.206c.054-.51.104-1.02.148-1.53l-9.635-9.634Z" fill="url(#instagram_4)"></path><path d="m25.95 15.8-7.755-7.754a.99.99 0 1 0-1.387 1.387l9.003 9.003c.061-.878.107-1.757.139-2.635Z" fill="url(#instagram_5)"></path><path d="M4.829 9.847c.054-.383.095-.768.164-1.147.39-2.15 1.913-3.614 4.09-3.689 2.62-.09 5.25-.095 7.87 0 2.37.085 4.085 1.84 4.16 4.21.078 2.516.078 5.039 0 7.556-.075 2.37-1.79 4.124-4.16 4.21-2.62.094-5.25.096-7.87-.002-2.37-.09-4.008-1.848-4.167-4.221-.013-.205-.057-.409-.087-.613V9.847Zm8.173 9.735c1.2 0 2.4.036 3.598-.009 1.878-.07 3.033-1.19 3.077-3.066a151.13 151.13 0 0 0 0-7.017c-.044-1.875-1.2-3.022-3.077-3.062-2.383-.05-4.768-.05-7.15 0-1.863.039-3.022 1.163-3.072 3.018a130.971 130.971 0 0 0 0 7.106c.05 1.855 1.209 2.952 3.072 3.021 1.182.044 2.368.009 3.552.009Z" fill="url(#instagram_6)"></path><path d="M4.829 9.847c.054-.383.095-.768.164-1.147.39-2.15 1.913-3.614 4.09-3.689 2.62-.09 5.25-.095 7.87 0 2.37.085 4.085 1.84 4.16 4.21.078 2.516.078 5.039 0 7.556-.075 2.37-1.79 4.124-4.16 4.21-2.62.094-5.25.096-7.87-.002-2.37-.09-4.008-1.848-4.167-4.221-.013-.205-.057-.409-.087-.613V9.847Zm8.173 9.735c1.2 0 2.4.036 3.598-.009 1.878-.07 3.033-1.19 3.077-3.066a151.13 151.13 0 0 0 0-7.017c-.044-1.875-1.2-3.022-3.077-3.062-2.383-.05-4.768-.05-7.15 0-1.863.039-3.022 1.163-3.072 3.018a130.971 130.971 0 0 0 0 7.106c.05 1.855 1.209 2.952 3.072 3.021 1.182.044 2.368.009 3.552.009Z" fill="#instagram_4ff"></path><path d="M13 8.836a4.164 4.164 0 1 0 0 8.329 4.164 4.164 0 0 0 0-8.33Zm0 6.895a2.73 2.73 0 1 1 0-5.462 2.73 2.73 0 0 1 0 5.462ZM18.398 8.646a.99.99 0 1 1-1.981 0 .99.99 0 0 1 1.981 0Z" fill="#instagram_4ff"></path><defs><linearGradient id="instagram_0" x1="9.972" y1="11.297" x2="-34.075" y2="-13.48" gradientUnits="userSpaceOnUse"><stop stop-color="#A1B5D8" stop-opacity="0"></stop><stop offset=".309" stop-color="#90A2BD" stop-opacity=".31"></stop><stop offset=".755" stop-color="#7C8B9C" stop-opacity=".757"></stop><stop offset="1" stop-color="#748290"></stop></linearGradient><linearGradient id="instagram_1" x1="13" y1="22.951" x2="13" y2="27.004" gradientUnits="userSpaceOnUse"><stop stop-color="#FAE100" stop-opacity="0"></stop><stop offset=".307" stop-color="#FCA800" stop-opacity=".306"></stop><stop offset=".627" stop-color="#FE7300" stop-opacity=".627"></stop><stop offset=".869" stop-color="#FF5200" stop-opacity=".867"></stop><stop offset="1" stop-color="#FF4500"></stop></linearGradient><linearGradient id="instagram_2" x1="11.521" y1="11.484" x2="5.086" y2="5.049" gradientUnits="userSpaceOnUse"><stop stop-color="#833AB4" stop-opacity="0"></stop><stop offset="1" stop-color="#833AB4"></stop></linearGradient><linearGradient id="instagram_3" x1="17.819" y1="23.78" x2="14.607" y2="8.64" gradientUnits="userSpaceOnUse"><stop stop-color="#833AB4" stop-opacity="0"></stop><stop offset="1" stop-color="#833AB4"></stop></linearGradient><linearGradient id="instagram_4" x1="19.041" y1="19.041" x2="6.142" y2="6.142" gradientUnits="userSpaceOnUse"><stop stop-color="#833AB4" stop-opacity="0"></stop><stop offset="1" stop-color="#833AB4"></stop></linearGradient><linearGradient id="instagram_5" x1="19.998" y1="11.236" x2="15.732" y2="6.97" gradientUnits="userSpaceOnUse"><stop stop-color="#833AB4" stop-opacity="0"></stop><stop offset="1" stop-color="#833AB4"></stop></linearGradient><linearGradient id="instagram_6" x1="18.162" y1="7.874" x2="7.645" y2="18.391" gradientUnits="userSpaceOnUse"><stop stop-color="#833AB4"></stop><stop offset=".092" stop-color="#9C3495"></stop><stop offset=".293" stop-color="#DC2546"></stop><stop offset=".392" stop-color="#FD1D1D"></stop><stop offset=".559" stop-color="#FC6831"></stop><stop offset=".689" stop-color="#FC9B40"></stop><stop offset=".752" stop-color="#FCAF45"></stop><stop offset=".781" stop-color="#FDB750"></stop><stop offset=".866" stop-color="#FECB6A"></stop><stop offset=".942" stop-color="#FFD87A"></stop><stop offset="1" stop-color="#FFDC80"></stop></linearGradient><radialGradient id="instagram_7" cx="0" cy="0" r="1" gradientUnits="userSpaceOnUse" gradientTransform="translate(5.33 22.722) scale(28.6734)"><stop stop-color="#FAE100"></stop><stop offset=".054" stop-color="#FADC04"></stop><stop offset=".117" stop-color="#FBCE0E"></stop><stop offset=".183" stop-color="#FCB720"></stop><stop offset=".251" stop-color="#FE9838"></stop><stop offset=".305" stop-color="#FF7950"></stop><stop offset=".492" stop-color="#FF1C74"></stop><stop offset="1" stop-color="#6C1CD1"></stop></radialGradient></defs></svg><svg aria-label="Pocket store logo." fill="none" id="logotype" viewBox="0 0 82 48"><path d="M27.294 32.216c-4.952 0-15.13-.079-18.68.213-2.73.226-5.3 1.23-6.602 3.221V24.983c.563-4.242 4.922-4.504 7.906-4.504l17.05-.017c3.105-.211 5.322-1.799 6.58-4.07 2.544-4.595 1.204-10.876-3.857-14.216 7.28 1.143 12.863 7.4 12.863 14.926 0 8.334-6.845 15.114-15.26 15.114Zm-.06-16.394c.746 0 1.352.601 1.352 1.34 0 .61-.443 1.34-1.519 1.34l-9.073.005-.006-2.685h9.246ZM27.294 0C27.2 0 8.27-.003 8.176.008 3.66.16.006 3.894.006 8.378v.015c0 31.067-.032 31.322.06 31.57C.246 44.407 3.957 48 8.518 48c4.664 0 8.46-3.758 8.46-8.378l-.001-2.215v-3.204h10.317c9.521 0 17.267-7.671 17.267-17.101S36.815 0 27.294 0Z" fill="#3E56DD"></path><path d="M22.37 44.894c-.275 0-.52-.044-.736-.131-.217-.091-.432-.252-.645-.483h-.086c.057.372.086.603.086.693v2.133H19.12V39.49h1.52l.262.675h.086c.347-.512.826-.769 1.437-.769.599 0 1.069.244 1.41.732.34.487.51 1.156.51 2.006 0 .856-.178 1.531-.535 2.025-.353.49-.834.736-1.442.736Zm-.627-4.06c-.273 0-.466.097-.577.291-.109.19-.168.475-.177.853v.145c0 .457.062.786.186.99.124.203.32.304.587.304a.55.55 0 0 0 .521-.3c.108-.203.162-.537.162-1.003 0-.456-.054-.783-.162-.98-.108-.2-.288-.3-.54-.3ZM30.584 42.133c0 .869-.239 1.547-.716 2.034-.475.485-1.14.727-1.997.727-.821 0-1.476-.249-1.963-.746-.484-.496-.726-1.168-.726-2.015 0-.866.238-1.538.712-2.016.478-.481 1.146-.722 2.006-.722.532 0 1.001.111 1.409.333.407.222.721.54.94.956.224.413.335.896.335 1.449Zm-3.506 0c0 .456.063.804.187 1.045.124.238.332.356.625.356.29 0 .494-.118.612-.356.12-.24.181-.589.181-1.045 0-.453-.06-.796-.181-1.027-.121-.231-.328-.347-.621-.347-.287 0-.492.116-.616.347-.125.228-.187.57-.187 1.027ZM34.118 44.894c-.885 0-1.556-.235-2.015-.703-.455-.47-.683-1.143-.683-2.02 0-.882.247-1.565.74-2.05.494-.483 1.196-.726 2.107-.726.627 0 1.217.135 1.772.403l-.55 1.355a5.694 5.694 0 0 0-.625-.23 2.002 2.002 0 0 0-.597-.089c-.303 0-.537.116-.703.347-.165.232-.248.558-.248.98 0 .85.32 1.275.96 1.275.548 0 1.073-.156 1.576-.469v1.458c-.48.313-1.058.469-1.733.469ZM38.737 41.814c.226-.353.419-.628.578-.825l1.213-1.5h2.083l-1.877 2.26L42.73 44.8h-2.135l-1.184-1.903-.607.455V44.8h-1.877v-7.294h1.877v2.869c0 .49-.035.97-.105 1.44h.038ZM45.987 44.894c-.9 0-1.601-.235-2.101-.703-.497-.472-.745-1.143-.745-2.011 0-.897.23-1.585.692-2.063.462-.481 1.121-.722 1.978-.722.815 0 1.444.21 1.886.628.446.416.669 1.016.669 1.8v.816h-3.339c.013.297.123.53.33.698.21.17.495.254.855.254.328 0 .629-.03.903-.09.277-.062.576-.167.898-.313v1.317a3.337 3.337 0 0 1-.908.304 6.4 6.4 0 0 1-1.118.085Zm-.11-4.252a.789.789 0 0 0-.553.206c-.147.135-.233.347-.258.638h1.604c-.006-.256-.08-.461-.224-.614-.14-.153-.33-.23-.568-.23ZM52.072 43.445c.252 0 .553-.06.903-.182v1.335a3.584 3.584 0 0 1-.721.225 3.97 3.97 0 0 1-.798.07c-.627 0-1.08-.15-1.356-.45-.277-.302-.416-.766-.416-1.391v-2.19h-.654v-.745l.83-.576.483-1.116h1.223v1.064h1.328v1.373h-1.328v2.068c0 .343.169.515.506.515ZM60.64 43.169c0 .569-.197.998-.591 1.289-.395.29-.962.436-1.7.436a7.25 7.25 0 0 1-1.047-.066 4.396 4.396 0 0 1-.907-.23v-1.467c.29.125.606.228.95.31.347.08.656.121.927.121.404 0 .606-.09.606-.271 0-.094-.057-.177-.172-.249-.111-.075-.439-.219-.983-.431-.497-.2-.844-.427-1.042-.68-.197-.256-.296-.58-.296-.97 0-.494.194-.878.583-1.153.388-.275.938-.413 1.648-.413.356 0 .69.04 1.003.117.315.075.641.186.979.333l-.506 1.182a5.547 5.547 0 0 0-.788-.277 2.62 2.62 0 0 0-.679-.117c-.305 0-.458.073-.458.22 0 .09.052.169.157.234.109.063.418.193.927.39.379.153.66.303.845.45.188.146.325.32.411.52.09.197.134.437.134.722ZM64.328 43.445c.252 0 .552-.06.903-.182v1.335a3.584 3.584 0 0 1-.721.225c-.227.047-.492.07-.798.07-.627 0-1.08-.15-1.357-.45-.277-.302-.415-.766-.415-1.391v-2.19h-.654v-.745l.83-.576.483-1.116h1.223v1.064h1.328v1.373h-1.328v2.068c0 .343.168.515.506.515ZM71.344 42.133c0 .869-.238 1.547-.716 2.034-.475.485-1.14.727-1.997.727-.821 0-1.475-.249-1.963-.746-.484-.496-.726-1.168-.726-2.015 0-.866.238-1.538.712-2.016.478-.481 1.146-.722 2.006-.722.532 0 1.002.111 1.409.333.408.222.721.54.941.956.223.413.334.896.334 1.449Zm-3.505 0c0 .456.062.804.186 1.045.124.238.333.356.625.356.29 0 .494-.118.612-.356.12-.24.181-.589.181-1.045 0-.453-.06-.796-.181-1.027-.121-.231-.328-.347-.621-.347-.287 0-.492.116-.616.347-.124.228-.186.57-.186 1.027ZM75.681 39.395c.163 0 .317.013.463.038l.105.019-.167 1.73a2.798 2.798 0 0 0-.635-.057c-.407 0-.704.092-.888.277-.185.18-.277.443-.277.787V44.8h-1.868v-5.31h1.39l.291.847h.091c.156-.28.373-.507.65-.68.28-.174.562-.262.845-.262ZM79.621 44.894c-.9 0-1.601-.235-2.101-.703-.497-.472-.745-1.143-.745-2.011 0-.897.23-1.585.692-2.063.462-.481 1.121-.722 1.978-.722.815 0 1.444.21 1.886.628.446.416.669 1.016.669 1.8v.816h-3.339c.013.297.123.53.33.698.21.17.495.254.855.254.328 0 .629-.03.903-.09.277-.062.576-.167.898-.313v1.317a3.34 3.34 0 0 1-.908.304 6.4 6.4 0 0 1-1.118.085Zm-.11-4.252a.788.788 0 0 0-.553.206c-.147.135-.233.347-.258.638h1.604c-.006-.256-.08-.461-.224-.614-.14-.153-.33-.23-.568-.23Z" fill="#3E56DD"></path></svg><svg aria-label="PayPal logo." fill="none" id="paypal" viewBox="0 0 32 32"><path fill-rule="evenodd" clip-rule="evenodd" d="M14.55 9.512h6.565c3.476 0 4.866 1.777 4.634 4.403-.309 4.325-2.935 6.72-6.41 6.72h-1.777c-.464 0-.773.308-.927 1.158l-.773 4.943c-.077.31-.231.54-.463.54h-4.094c-.386 0-.54-.308-.386-.926l2.472-15.911c.077-.618.463-.927 1.158-.927Z" fill="#1F9CD8"></path><path fill-rule="evenodd" clip-rule="evenodd" d="M10.456 4.028h6.565c1.854 0 4.017.077 5.484 1.313 1.004.85 1.468 2.24 1.39 3.708-.386 5.02-3.398 7.8-7.415 7.8h-3.244c-.54 0-.927.387-1.081 1.314l-.927 5.715c-.077.387-.232.618-.54.618H6.67c-.463 0-.618-.309-.463-1.081L9.143 5.109c.077-.695.463-1.081 1.313-1.081Z" fill="#233E81"></path><path fill-rule="evenodd" clip-rule="evenodd" d="m12.232 17.622 1.159-7.26c.077-.618.463-.927 1.158-.927h6.566c1.081 0 1.93.154 2.626.463-.695 4.48-3.553 6.952-7.338 6.952H13.16c-.386 0-.695.231-.927.772Z" fill="#27326E"></path></svg><svg aria-label="Логотип Сбербанка России." fill="none" id="sberbank" viewBox="0 0 32 32"><path d="m11.41 11.774 10.196-5.797a6.811 6.811 0 0 0-1.303-.61l-8.893 4.958L7.5 8.113c-.306.305-.536.61-.843.991l4.753 2.67Zm12.343-4.195c-.307-.305-.613-.534-.997-.84L11.41 13.148l-5.443-3.051c-.153.381-.306.762-.536 1.144l5.98 3.28 12.342-6.941Zm-12.343 8.39-6.363-3.661c-.076.381-.23.762-.306 1.22l6.67 3.738 13.952-7.78c-.23-.306-.46-.687-.767-.992L11.41 15.969Zm15.793-.381c0 6.102-5.06 11.136-11.346 11.136-6.21 0-11.346-4.958-11.346-11.136v-.763l6.823 3.89 14.565-8.238c.844 1.602 1.304 3.356 1.304 5.11Z" fill="#2C9E48"></path></svg><svg aria-label="Логотип Тинькофф банка." fill="none" id="tinkoff" viewBox="0 0 32 32"><path d="m8.544 22.963-.308.522c-.11-.344-.308-.701-.437-.954-.246.509-.636.519-1.012.522.083-1.218-1.446-2.443-.774-3.832.134-.278.048-.618-.242-.764-1.026-.521-.551 1.64-1.577 1.706.197-.245.271-.759.3-.803-.218.057-.74.388-.975-.037.6-.326.772-.817.866-1.31.119-.623.174-.912.295-1.168.126-.274.329-.512.762-1.073-.103.015-1.257.258-1.516.137 1.995-1.225 1.546-2.783 4.589-4.172-.798-.592-1.614-1.065-1.029-2.197.834 1.001 2.418.655 3.273.19-.845-.17-1.934-.914-2.193-1.743.319-.05.731.296.969.457.114-.306.16-.662.53-.74-.494 1.06.483 1.61 1.415 1.615.144 0 .747-.06.747-.06-.095-.198-.486-.74-.202-.958.228.214.5.384.747.574 1.812 1.402-.861 2.703-1.955 3.293-1.717.927-1.257 2.03-.54 2.313-.003.125-.08.18-.2.219-.5.167-.971-.19-1.371-.42.024.692-.023 1.358.742 1.739l-.528.193c.454.344.592.526 1.138.597-.255.124-.572.122-.843.147.069.192.125.451.269.623-1.118.133-1.565-.505-1.91-.479-.738.055-.692 1.442 1.122 1.444l-.188.31s.344.201.658.24c-.12.098-.237.23-.338.33l.29.25c-.74.132-.95-.655-1.43-.276-.733.58.882 1.806 2.431 1.623-.13.167-.494.412-.651.54 1.262 1.192.64 2.314 1.159 3.136-1.088-.072-1.894-.87-2.083-1.734Zm1.419-1.341c.35-.278.64-.417.626-1.089-.526.268-2.018.254-2.64-.604-.177-.243.011-.366.182-.174.426.483 1.216.264 1.504.124a1.136 1.136 0 0 0-.281-.475c.108-.106.412-.264.476-.536-.164-.089-.797-.152-.797-.152.102-.097.229-.234.153-.596-.646.198-1.445-.071-1.627-.31-.178-.236.004-.456.154-.301.322.338 1.91.726 2.5.137-.219-.06-.46-.256-.505-.377.547-.055.983-.378 1.019-.78-.303 0-.874-.022-1.068-.168.263-.097.427-.192.51-.485-1-.06-1.078-.803-1.084-.927.65.376 1.797.21 1.5-.715-.54-.03-1.086-.906.403-1.712 1.354-.732 2.894-1.522 2.758-2.823-.088-.831-1.46-1.4-1.633-1.821-.572.272-.688.588-.43 1.118 0 0-1.273.126-1.374-.658-.044-.352.191-.681.443-.932-.143 0-1.103-.257-1.392.525-.54-.367-.999-.354-1.362.034.579.344.937 1.521 1.894 1.87-.68.369-1.781.213-2.423-.92-.608.916-.957 1.822.345 2.79-2.371 1.08-2.354 3.142-4.416 4.125.21.561.65.561 1.212.474-.892 1.159-.132 2.37-1.543 2.867.132.472.397.849.918.71-.149.232-.246.227-.477.481.772.486 1.687.134 1.894-1.425.038-.278.421-.104.288.169-.88 1.819 1.345 3.187.558 4.522.695-.03 1.222-.083 1.513-.318.141.28.225.557.195.83.383-.077.523-.305.55-.563.251.731 1.149 1.514 2.586 1.514-.762-1.085-.052-2.188-1.129-3.429Z" fill="#D0D5D6"></path><path d="M6.554 18.613c.261.273.58.3 1.182.263-.662-.08-1.033-.241-1.264-.68a6.473 6.473 0 0 1-.067-.73c-.02-.696.21-1.525.69-2.433a1.701 1.701 0 0 0 1.457 1.614c-.907-.396-1.438-1.288-1.149-2.15.19-.302.402-.614.64-.93.12-.152.236-.3.35-.437-.123.44.41.896.767.972-.194-.189-.608-.801.349-1.825a4.36 4.36 0 0 0-.787.48c1.74-1.88 3.169-1.932 3.826-2.877-.951.65-3.47 1-4.601.694.624.417 2.13.379 2.497.301-1.227 1.194-3.907 2.426-4.37 3.523.652-.717 1.074-.848 1.64-1.033-.446.665-.847 1.249-1.123 1.926-.713 1.549-1.666 1.568-1.729 2.846.325-.99.985-1.24 1.443-1.89a6.39 6.39 0 0 0-.104 1.406 4.38 4.38 0 0 0 .315 1.539c-.046.632.01 1.71.734 2.421-.492-.622-.598-1.634-.554-2.029.566 1.094 2.182 2.603 2.963 3.619-.78-1.306-2.695-2.83-3.105-4.59Zm17.881-5.248c.563.186.987.316 1.64 1.033-.464-1.097-3.146-2.33-4.373-3.523.37.078 1.874.116 2.498-.301-1.13.307-3.65-.044-4.601-.694.657.945 2.086.998 3.826 2.877a4.329 4.329 0 0 0-.787-.48c.956 1.024.543 1.635.35 1.825.356-.076.888-.53.767-.972.114.137.23.284.35.437.239.316.45.628.639.93.29.862-.244 1.754-1.148 2.15a1.697 1.697 0 0 0 1.455-1.614c.481.908.712 1.737.69 2.434-.008.26-.032.502-.066.728-.231.44-.602.601-1.262.68.601.039.917.01 1.182-.262-.412 1.76-2.326 3.284-3.107 4.59.781-1.016 2.395-2.525 2.963-3.619.044.395-.062 1.407-.552 2.03.722-.712.779-1.79.732-2.422.183-.455.298-.962.315-1.54a6.25 6.25 0 0 0-.104-1.406c.458.65 1.118.901 1.443 1.89-.061-1.277-1.015-1.296-1.73-2.845-.274-.677-.674-1.261-1.12-1.926Z" fill="#D0D5D6"></path><path d="M27.656 19.36c.027.044.1.558.296.803-1.026-.065-.55-2.227-1.576-1.706-.29.146-.376.486-.241.764.671 1.389-.859 2.614-.773 3.832-.378-.003-.77-.013-1.015-.522-.127.253-.328.61-.436.954l-.308-.522c-.19.863-.995 1.662-2.082 1.734.516-.822-.104-1.944 1.158-3.137-.158-.126-.52-.372-.65-.539 1.549.183 3.164-1.042 2.43-1.623-.48-.38-.69.408-1.429.275l.29-.25c-.102-.1-.22-.231-.34-.329.316-.039.66-.24.66-.24l-.189-.31c1.815-.002 1.858-1.39 1.124-1.444-.345-.026-.794.612-1.911.48.141-.173.2-.433.268-.624-.268-.025-.588-.023-.842-.147.546-.071.683-.253 1.137-.598l-.526-.192c.764-.381.717-1.047.74-1.739-.398.23-.871.587-1.37.42-.12-.039-.197-.094-.2-.22.717-.282 1.174-1.385-.54-2.312-1.094-.59-3.769-1.89-1.956-3.293.248-.19.518-.36.746-.574.284.219-.104.76-.202.958 0 0 .603.06.746.06.934-.004 1.913-.556 1.418-1.614.37.077.414.433.528.739.238-.161.651-.507.971-.457-.26.829-1.347 1.573-2.193 1.742.854.466 2.439.812 3.272-.19.585 1.133-.23 1.606-1.03 2.199 3.044 1.388 2.595 2.945 4.59 4.171-.257.121-1.414-.122-1.517-.137.435.561.638.799.764 1.073.121.256.174.544.294 1.168.095.493.268.984.866 1.31-.234.425-.757.094-.972.037Zm-.119-3.096c.561.087 1.003.087 1.213-.475-2.063-.982-2.046-3.044-4.418-4.124 1.304-.968.953-1.874.348-2.79-.642 1.133-1.746 1.289-2.423.92.955-.349 1.314-1.526 1.892-1.87-.361-.388-.824-.401-1.36-.034-.293-.783-1.25-.525-1.395-.525.251.25.489.58.444.932-.1.784-1.373.658-1.373.658.256-.53.142-.846-.43-1.118-.175.422-1.544.99-1.632 1.82-.137 1.302 1.403 2.092 2.756 2.824 1.49.806.943 1.683.404 1.712-.3.925.848 1.091 1.499.715-.003.124-.085.866-1.085.927.084.293.248.388.511.485-.196.146-.765.168-1.068.168.037.402.473.724 1.02.779-.044.121-.287.318-.506.378.59.589 2.178.201 2.501-.137.148-.155.33.065.154.3-.183.24-.981.51-1.628.31-.074.363.051.5.152.597 0 0-.632.063-.796.152.061.272.369.43.476.536-.107.093-.235.31-.28.475.289.14 1.08.36 1.502-.124.173-.192.36-.07.185.174-.624.859-2.115.872-2.642.604-.014.672.276.81.626 1.09-1.077 1.24-.366 2.343-1.128 3.428 1.435 0 2.334-.783 2.586-1.514.028.258.166.486.549.564-.03-.274.056-.551.194-.831.292.235.822.288 1.513.318-.785-1.335 1.44-2.703.558-4.522-.131-.274.252-.447.289-.169.206 1.559 1.122 1.911 1.895 1.425-.233-.254-.329-.249-.477-.48.52.138.785-.239.919-.711-1.412-.496-.652-1.709-1.545-2.867Zm-14.36 5.675.423-.322c.076-.057.124-.093.21-.082l.598.078c.033.144.128.284.128.284l-.635-.134c-.09-.01-.117-.006-.201.055l-.301.227c-.06.047-.061.12-.028.193l.05.105-.211.16-.08-.152c-.082-.162-.088-.309.046-.412Zm.97-1.123-.11.059c-.076.044-.115.064-.181-.02l-.049-.06c-.023-.028-.031-.1.018-.153l.473-.552-.436-.358.556.205.203-.254c.06.052.038.198.038.198.225 0 .879.325.904 1.138 0 0 .147.219.336.23l.963.058c.159 0 .558-.303 1.07-.016.13-.078.27-.14.412-.156.451-.034.784.281 1.032.598.181.23.429.58.429.58-.106.127-.212.17-.3.138-.134-.068-.177-.176-.219-.325-.067-.236-.328-.438-.328-.438.088.159.107.339.15.504-.377-.372-.448-.828-.71-.89-.118-.029-.252.02-.379.167.133.307.127.665.262.903.104.179.125.194.172.234.11.08.047.222.03.327l-.142.894h-.24l.158-.876c.048-.266-.7-.266-1.083-.774-.327.381-1.242.286-1.638.226-.16-.023-.315-.013-.404.144-.05.09-.138.062-.19.05l-.722-.157c-.127-.029-.181-.004-.238.113l-.145.299c-.032.07-.03.12.027.177l.07.073c-.042.145-.172.253-.172.253l-.159-.177c-.076-.09-.08-.22-.019-.347l.234-.487c.027-.053.077-.113.176-.113l.893-.014-.273-.445c-.205-.335.134-.93.083-1.212-.025.377-.48.205-.552.256Zm3.719 2.06-.386.95h-.24l.386-.92c.04-.118-.036-.174-.132-.304.143.08.245.133.419.2-.016.026-.034.041-.047.074Zm-4.702-.108.433-.367-.066-.133c-.047-.093-.022-.1.03-.137l.227-.17c.053-.044.109-.04.175-.024l.687.162h-.725c-.169.011-.218.076-.277.2l-.05.102-.187.383c-.064.132-.096.307.07.507l.132.156-.267.541h.225l.184-.376c.015-.013.289-.262.346-.52-.078-.064-.135-.11-.091-.2l.084-.178c.027-.06.037-.085.116-.068l.723.156c.09.024.222.064.318-.081.1-.152.112-.135.341-.112l.369.04c.503.047 1.006-.08 1.202-.235.068.157.204.277.268.398.023.045-.015.109-.047.188l-.413.988h.637l.361-.902a.515.515 0 0 1 .12-.188l-.207 1.09h.618l.165-1.08c.036-.24.015-.317-.1-.415-.259-.218-.253-.675-.336-.953a.246.246 0 0 1 .156-.031c.135.014.236.357.395.578.316.445.75.937 1.245.245a1.649 1.649 0 0 0-.16-.22l-.139-.161c-.08-.09-.464-.529-.623-.687-.364-.365-.921-.31-1.143-.133-.504-.263-1.034.014-1.16.004l-.867-.053a.171.171 0 0 1-.14-.083l.16-.053c-.151-.627-.53-1.153-1.192-1.242 0 0-.039-.199-.14-.237l-.197.233a.65.65 0 0 0-.167.046l-.844-.314.634.641s-.33.466-.423.56c-.062.088-.055.156.014.24l.123.162c.064.082.133.08.235.027l.139-.071c.06-.051.264.049.35-.03a2.542 2.542 0 0 0-.096.497l-.569-.07c-.125-.015-.18 0-.258.06l-.485.374c-.159.122-.208.332-.11.537l.197.41Zm1.853-12.296c.232.16.641.331.641.331v-.273l-.902-.345s0 .11.26.287Zm.641-.33v-.27l-1.024-.366s.122.13.383.309c.232.16.641.328.641.328Zm0-.616v-.273l-1.12-.413s.218.178.479.355c.232.16.641.331.641.331Z" fill="#D0D5D6"></path><path d="M18.808 13.241h1.147c-.048-.166-.227-.334-.561-.334a.645.645 0 0 0-.586.334Zm-1.2-4.4-1.119.412v.273s.41-.17.64-.33c.262-.178.48-.356.48-.356Zm-.217 1.344-.902.345v.273s.41-.17.641-.33c.26-.178.26-.288.26-.288Zm.121-.679-1.023.367v.27s.41-.169.641-.328c.26-.179.382-.309.382-.309Zm-4.762 3.401c-.334 0-.512.168-.56.334h1.148a.647.647 0 0 0-.588-.334Z" fill="#D0D5D6"></path><path d="m16.074 8.705-1.842-.727c.156-.37.879-.686 1.842-.686.963 0 1.684.315 1.84.686l-1.84.727Zm1.37 2.274-1.241.652V8.994l1.686-.573-.444 2.558Zm1.452 1.1c-.466.08-.865.65-1.193 1.162l-.037.06h-.35v.06c-.037.396-.413.934-1.243.934-.383 0-.672-.117-.87-.278a1.02 1.02 0 0 1-.333-.477.82.82 0 0 1-.038-.179l-.003-.06h-.347l-.038-.06c-.33-.512-.729-1.082-1.192-1.163l1.266-.734 1.556.845 1.554-.845 1.268.734Zm1.708 1.938c-.133.347-.24.721-.24 1.096v4.03h-.469c-.212-.207-.392-.894-.392-.894-.116.248.017.748.142.893h-.604c-.149-.201-.278-.917-.278-.917-.18.206-.066.763.045.917h-.4c-.026-.286.056-.598.056-.598-.209-.038-.433-.149-.432-.383.106.1.149.099.296.096l.17-.134c-.565.017-.59-.602-.143-.893-.448.014-.783-.251-.619-.728-.32-.165-.431-.704-.196-.94-.17-.186-.199-.548-.09-.796-.225 0-.48-.09-.62-.245-.012.005-.024.01-.036.013.282-.115.52-.294.682-.517h3.128Zm-.239 8.004c0 .84-.388 1.478-1.034 1.833l.232-.471h-.224l-.297.602c-.307.117-.656.18-1.043.18-1.178 0-1.49.049-1.924.483-.438-.434-.75-.482-1.925-.482a2.97 2.97 0 0 1-1.04-.178h.01l.296-.605h-.224l-.26.53a2.38 2.38 0 0 1-.181-.096l.215-.434h-.222l-.16.323c-.505-.372-.802-.952-.802-1.685v-2.642h8.583v2.642Zm-5.842-4.825.362.045c.027.198-.025.535-.155.722l-.35-.102c.093-.223.117-.428.143-.665Zm-.521-.265s.332-.016.425.02c.07.028.023.144-.066.132-.094-.012-.359-.152-.359-.152Zm-.023-1.32-.297 1.09.101-1.755.463-.396.235.516-.594 1.704.156-1.147c.015-.08-.05-.089-.064-.011Zm-.228 1.815c-.157.063-.316-.022-.267-.124.072.067.274.034.274.034l-.007.09Zm-.294.145c.072.07.29.044.29.044l.01.043c-.096.127-.36.07-.3-.087Zm-.343-.7c-.083-.056-.045-.177.047-.177.101.002.236.117.37.175 0 0-.35.046-.417.002Zm.332.964s.1.043.227.052c-.014.07-.067.137-.154.118-.07-.016-.103-.105-.073-.17Zm.236-.657c-.169.054-.243-.067-.235-.17.329-.121.475-.043.572.019.089.056.162.214.282.313a2.67 2.67 0 0 1-.11.462c-.337-.087-.355-.383-.228-.565-.071-.082-.146-.103-.281-.06Zm1.459.096.36.043c.036.199-.031.619-.167.82l-.368-.106c.147-.193.2-.536.175-.757Zm.62.076.297.038c.047.246.017.673-.141.917l-.347-.101c.153-.206.223-.63.19-.854Zm.533.066h.006a.44.44 0 0 0 .233-.032c.16.23.286.753.093 1.08-.109 0-.216-.018-.316-.046l-.08-.024c.163-.253.138-.698.064-.978Zm.454-.175.21-.207c.216.188.497.607.41 1.005l-.23.21a.795.795 0 0 1-.146.11c.142-.355-.04-.901-.244-1.118Zm1.237.118a.692.692 0 0 0-.108.211l-.256.236c.051-.375-.2-.818-.43-.999l.273-.267.053.055c-.09.239.087.707.468.764Zm-.68-1.813a.829.829 0 0 0 .037.823l-.105.103c-.46-.057-.641-.742-.641-.742-.009.06-.015.122-.014.182-.268-.099-.438-.337-.424-.663.102.057.216.096.337.118l.031-.201a.7.7 0 0 1-.58-.493.848.848 0 0 1-.043-.007c.056.005.113.01.172.01.19 0 .37-.03.54-.08.133.19.37.326.608.352-.038.157-.02.354.082.598Zm-2.635-1.529c.222.304.582.528 1.007.617.037.16.123.334.292.476-.07.471.133.911.64 1.028.052.24.202.421.451.508l-.352.407a.515.515 0 0 1-.456.188l-1.574-.18c.067-.174-.114-.377-.612-.29l.619-1.73-.378-.803-.715.61-.053 1.816-.303-.15c-.401-.172-.517.55-.137.553l.15.002c-.01.075.013.156.072.18-.072.031-.093.166-.003.213-.092.043-.103.18-.03.24-.08.133-.091.423.184.495.225.06.367-.184.415-.325l2.448.759c.348.1.594.044.882-.209l.64-.559c-.08.365.05.695.329.804 0 0-.04.327-.027.475h-6.377v-4.029c0-.375-.108-.75-.238-1.096h3.126Zm-.413-5.596 1.685.573v2.637l-1.24-.652-.445-2.558Zm4.094-.314c0-.645-1.083-1.223-2.278-1.223-1.196 0-2.28.578-2.28 1.223l.026.157.475 2.74-2.258 1.316c-.241.141-.542.53-.58.921h.412c.068-.39.377-.824.954-.798.522.029.83.346 1.137.798l.079.12.114.179h-3.323c.244.49.477 1.01.477 1.573v6.908c0 1.777 1.366 2.623 2.844 2.623 1.14 0 1.295-.052 1.925.578.628-.63.78-.578 1.925-.578 1.477 0 2.843-.846 2.843-2.623v-6.908c0-.564.23-1.084.474-1.573h-3.324l.116-.179.079-.12c.305-.452.614-.77 1.136-.798.574-.026.885.408.953.798h.412c-.037-.39-.34-.78-.58-.921l-2.258-1.317.477-2.74.023-.156Z" fill="#D0D5D6"></path><path d="m20.17 16.622.002-.203c-.619-.014-.762-.746-.762-.746-.18.539.293.94.76.949Zm-.783 1.237-.063-.192c-.528.136-.8-.702-.8-.702-.17.61.42 1.04.863.894Zm.367-.776c-.631.1-.89-.635-.89-.635-.07.4.189.805.605.849-.093.521.392.79.811.603l-.06-.181c-.365.12-.707-.24-.466-.636Zm-.378-2.097.005-.201c-.833-.173-.763-.746-.763-.746-.18.54.292.938.758.947Z" fill="#D0D5D6"></path><path fill-rule="evenodd" clip-rule="evenodd" d="m14.095 23.383-.299.606h.225l.298-.606h-.224ZM14.545 23.383l-.298.606h.226l.296-.606h-.224ZM16.35 23.383l-.297.606h.222l.299-.606h-.225ZM16.803 23.383l-.3.606h.225l.297-.606h-.222ZM15.899 23.383l-.298.606h.224l.298-.606h-.224ZM18.535 23.989h.223l.299-.606h-.225l-.297.606ZM14.997 23.383l-.298.606h.225l.297-.606h-.224ZM15.447 23.383l-.298.606h.226l.298-.606h-.226Z" fill="#D0D5D6"></path><path d="M14.426 20.13c-.041 0-.076.04-.076.092 0 .05.035.09.076.09.043 0 .079-.04.079-.09 0-.052-.036-.092-.079-.092Zm-.09-13.984.353-.753.66.35.725-.717.727.717.657-.35.352.753.437-.068a3.43 3.43 0 0 0-.274.652c-.478-.28-1.188-.494-1.9-.494-.711 0-1.42.215-1.898.494a3.394 3.394 0 0 0-.276-.652l.436.068Zm1.739.33c.924 0 1.665.306 2.074.636 0 0 .122-.735.536-1.38l-.744.084-.39-.829-.75.39-.726-.721-.727.721-.751-.39-.39.83-.745-.084c.415.644.536 1.379.536 1.379.409-.33 1.15-.636 2.077-.636Z" fill="#D0D5D6"></path><path d="M16.835 4.992a.198.198 0 0 0 .213-.18c.01-.107-.147-.397-.147-.397s-.237.255-.245.364a.198.198 0 0 0 .179.213Zm1.22.443a.197.197 0 0 0 .267-.083c.051-.094.018-.421.018-.421s-.316.14-.367.237a.2.2 0 0 0 .082.267Zm-2.743-.443c.11-.01.19-.106.18-.213-.01-.109-.244-.364-.244-.364s-.158.29-.148.397c.008.108.105.189.212.18Zm-1.22.443a.197.197 0 0 0 .081-.267c-.05-.096-.366-.237-.366-.237s-.032.327.02.42c.05.097.169.136.265.084Zm13.507 6.858c.08.179.24.8-.142 1.274-.433-.868-1.031-1.611-1.514-1.932-.106-.068.058-.19.355-.23.902-.17 1.957.212 2.459.345a1.298 1.298 0 0 1-.663.284c.365.305.63.564.82.853-.355.088-.553-.136-1.315-.594Zm1.136-.148c.26-.092.461-.341.56-.57-.66-.096-2.419-.833-3.864-.232.541-.515 1.027-.58 1.073-1.32.225.162.604.253.817-.132-.148-.441-.525-.084-.577-.206-.075-.167.474.053.592-.519-.427-.147-.554.202-.63.121-.07-.077.27-.223.02-.684-.445.26-.213.552-.307.584-.114.046-.025-.312-.515-.295-.049.526.461.544.377.628-.1.102-.233-.304-.604-.098.006.425.35.659.707.559-.058.809-.8.658-1.352 1.57 1.17.599 1.699 1.646 2.419 2.368.238-.167.645-.919.645-.919.78.604 1.328.003 1.328.003-.269-.275-.279-.483-.69-.858ZM15.857 26.498l-.507-.02-.058.204.063.003c.021 0 .021-.04.04-.061a.47.47 0 0 1 .175-.015l.212.016c-.126.26-.453.505-.448.678.005.092.098.11.153.107.102-.003.135-.075.162-.186.06-.256.185-.452.275-.745l-.063.002-.004.017Zm.346.302.008-.156h.44l-.022-.174c-.121.004-.298.043-.461.044l-.03.34c.204-.008.337.08.337.295 0 .08-.052.229-.144.24a.093.093 0 0 1-.062-.015c-.045-.033.013-.07.013-.125 0-.07-.072-.095-.12-.087-.076.005-.104.054-.104.114 0 .126.186.16.267.16.18 0 .39-.1.39-.305 0-.269-.301-.325-.512-.33Zm1.082.14c-.167 0-.19-.245-.19-.364 0-.033.032-.08.069-.08.153 0 .195.332.207.426a.257.257 0 0 1-.086.017Zm-.106-.49c-.168 0-.307.117-.307.278 0 .253.291.337.507.24.027.198-.016.34-.096.344-.068 0-.058-.048-.068-.088-.018-.077-.082-.098-.15-.077-.07.019-.08.077-.069.12.032.1.164.103.227.096.278-.03.394-.223.394-.436 0-.248-.152-.478-.438-.478Zm-2.185-.053c-.024.029-.132.165-.366.338l.019.036c.026-.015.067-.034.138-.076l-.138.48c-.007.027-.039.03-.055.027l-.082-.012-.015.057.447.08.014-.056-.077-.018c-.023-.006-.038-.022-.033-.048l.203-.8-.056-.008Z" fill="#D0D5D6"></path><path d="m18.382 26.966-.397-1.292c.845-.174 1.434-.354 1.883-.527v.805l.697.281a11.4 11.4 0 0 1-2.183.733Zm-2.307.754c-.79 0-1.559-.118-2.217-.28l.419-1.352c.278.064.972.15 1.798.15.826 0 1.517-.086 1.797-.15l.42 1.353a9.49 9.49 0 0 1-2.217.28Zm-4.494-1.487.699-.28v-.806c.448.173 1.038.353 1.882.527l-.395 1.292a11.532 11.532 0 0 1-2.186-.733Zm8.503-.449v-.987c-.764.35-1.735.633-2.984.746l-.057.353c.107.015.24.028.42.039-.463.064-1.06.095-1.388.095-.33 0-.926-.03-1.39-.095a5.61 5.61 0 0 0 .42-.04l-.057-.352c-1.25-.113-2.223-.396-2.984-.746v.987l-1.036.425c.767.4 1.65.725 2.67.988l-.12.413c.584.171 1.517.346 2.497.346a9.41 9.41 0 0 0 2.495-.346l-.12-.413c1.02-.263 1.903-.588 2.67-.988l-1.036-.425ZM3.234 12.887c.189-.289.452-.548.82-.852a1.308 1.308 0 0 1-.664-.285c.502-.133 1.56-.515 2.46-.344.295.039.463.16.354.229-.484.32-1.081 1.064-1.516 1.932-.38-.474-.22-1.095-.14-1.274-.76.458-.959.682-1.315.594ZM4.05 13s.407.752.645.92c.72-.723 1.25-1.77 2.42-2.37-.554-.911-1.297-.759-1.35-1.569.353.1.698-.135.706-.56-.373-.203-.505.202-.605.099-.084-.086.426-.102.377-.628-.491-.015-.4.34-.516.295-.092-.033.139-.326-.307-.584-.25.463.092.607.02.684-.074.081-.203-.268-.629-.12.115.571.666.35.591.518-.052.122-.428-.235-.576.206.211.385.592.294.815.133.047.742.532.803 1.075 1.319-1.445-.601-3.204.136-3.867.233.1.228.302.477.562.567-.41.378-.419.586-.688.86 0 0 .547.601 1.327-.003Zm11.39-.55v.435c.15-.18.439-.145.439-.145v.626s-.01.308-.119.442h.627c-.11-.134-.12-.442-.12-.442v-.626s.29-.035.44.145v-.435H15.44Z" fill="#D0D5D6"></path><path fill-rule="evenodd" clip-rule="evenodd" d="M29.799 12.637a1.413 1.413 0 0 1-.185-.248 5.803 5.803 0 0 0-.108-.162c.109-.127.202-.274.272-.434l.28-.638-.69-.1a5.94 5.94 0 0 1-.522-.123c-.423-.111-.965-.253-1.557-.315.202-.09.373-.249.493-.465l.114-.204s-.03-.286-.142-.376c.043-.089.075-.187.098-.293l.093-.457-.44-.151a1.192 1.192 0 0 0-.205-.052 1.405 1.405 0 0 0-.112-.265l-.262-.48-.472.277c-.117.069-.216.147-.297.235a1.242 1.242 0 0 0-.225-.02s-.268-.03-.567.079l-.38-.395-.45-.48c-.421-.451-.992-.585-1.574-.363-.222-.222-.568-.406-1.105-.406-.183 0-.342.022-.437.035 0 0-.74.135-1.156.53l-.505-.24c-.338.532-.917.701-.917.701a1.253 1.253 0 0 0-.203-.433l.033-.189c0-.005.114-.64.46-1.18l.602-.936-.853.095a2.447 2.447 0 0 0-.014-.303l-.076-.73-.669.302a2.918 2.918 0 0 0-.193.098l-.132-.282-.306.16a2.454 2.454 0 0 0-.125-.26l-.353-.647-.5.54a2.347 2.347 0 0 0-.133.156l-.304-.303-.306.304a2.15 2.15 0 0 0-.131-.155l-.502-.545-.354.65c-.054.1-.093.183-.124.26l-.305-.16-.133.282a3.597 3.597 0 0 0-.194-.098l-.67-.302-.075.732a2.357 2.357 0 0 0-.013.301l-.855-.095.604.937c.348.538.459 1.173.459 1.178l.032.188c-.097.134-.165.28-.204.435 0 0-.546-.233-.912-.702l-.515.246c-.588-.397-.952-.552-1.586-.57-.537-.014-.884.184-1.105.405-.583-.22-1.152-.086-1.571.363 0 0-.276.3-.451.481-.175.182-.432.332-.432.332s-.366-.082-.742.005a1.265 1.265 0 0 0-.3-.237l-.472-.276-.26.483a1.35 1.35 0 0 0-.11.262c-.068.011-.137.028-.205.052l-.438.15.092.455c.022.11.053.207.097.296-.025.048-.048.1-.066.155l-.074.22.112.205c.12.216.29.376.493.465-.593.062-1.135.204-1.559.315a6.054 6.054 0 0 1-.522.124l-.693.1.158.356.126.284c.071.159.164.305.274.431-.041.058-.216.331-.293.41l-.35.356.336.37c.042.046.418.44 1.027.441.167 0 .332-.029.496-.087.162.254.354.511.531.638a3.56 3.56 0 0 1-1.216.96l-.439.209.188.5c.123.302.361.635.823.761a5.259 5.259 0 0 0-.188.826c-.099.593-.14.838-.663 1.022l-.469.164.134.478c.109.39.27.648.447.817l-.312.343s.74.554 1.465.622c.01.001.629.04.906-.313.111.4.287.77.446 1.106.328.689.502 1.097.283 1.47l-.495.84.974-.042c.425-.017.82-.043 1.162-.127a.447.447 0 0 1-.003.053l-.08.721.853-.18c.09-.027.174-.062.251-.103.53.617 1.426 1.1 2.636 1.1h.071l-1.39.571 1.012.527a12.29 12.29 0 0 0 2.253.885l-.118.405.508.148a9.91 9.91 0 0 0 2.646.368c1.291 0 2.35-.282 2.645-.368l.507-.148-.118-.405a12.329 12.329 0 0 0 2.255-.885l1.013-.527-1.392-.571h.07c1.209 0 2.106-.483 2.635-1.1.076.04.16.076.25.103l.853.18-.078-.72a.54.54 0 0 1-.003-.054c.341.084.737.11 1.162.127l.973.041-.494-.84c-.22-.372-.045-.78.282-1.468.16-.336.335-.706.447-1.107a1.5 1.5 0 0 0 .59.273s.156.047.305.05c.431.014.645-.108.942-.295l.537-.338-.315-.343c.176-.17.338-.427.447-.815l.135-.48-.47-.163c-.523-.184-.564-.43-.663-1.022-.043-.25-.089-.53-.189-.826.462-.127.7-.46.823-.76l.188-.502-.438-.208c-.525-.25-.893-.58-1.217-.96.177-.127.37-.384.533-.638.162.058.327.086.494.087.61 0 .987-.395 1.028-.44l.335-.37-.348-.357Z" fill="#FFFFFE"></path><path d="M16.075 24.65c-.438-.435-.75-.483-1.927-.483-1.407 0-2.364-.825-2.364-2.145v-2.64h8.58v2.64c0 1.32-.954 2.145-2.364 2.145-1.18 0-1.49.047-1.925.482Zm-4.291-5.505v-4.028c0-.376-.109-.75-.238-1.096h3.125c.287.394.807.658 1.404.658.594 0 1.114-.264 1.402-.658h3.126c-.133.346-.24.72-.24 1.096v4.028h-8.579Z" fill="#FFE52B"></path><path d="M12.28 25.148v.804l-.697.281c.59.269 1.322.535 2.184.732l.396-1.29c-.845-.175-1.434-.355-1.882-.527Zm3.795 1.09c-.826 0-1.52-.086-1.798-.15l-.418 1.353c.657.161 1.427.28 2.216.28.786 0 1.555-.119 2.216-.28l-.42-1.354c-.279.065-.97.15-1.796.15Zm3.792-1.09c-.449.172-1.037.352-1.882.527l.397 1.29a11.399 11.399 0 0 0 2.182-.732l-.697-.28v-.805ZM9.512 12.28c-.958 1.024-.544 1.636-.35 1.825-.357-.077-.889-.531-.768-.97-.113.135-.229.283-.349.435-.237.316-.45.627-.639.928-.29.864.243 1.755 1.148 2.15-1.007-.147-1.459-1.043-1.455-1.613-.482.908-.71 1.737-.69 2.434.01.258.032.5.065.728.232.44.603.6 1.264.68-.601.038-.919.01-1.181-.263.41 1.76 2.324 3.283 3.103 4.588-.78-1.014-2.395-2.524-2.96-3.617-.045.395.06 1.407.552 2.029-.723-.711-.78-1.79-.733-2.42a4.383 4.383 0 0 1-.315-1.54 6.381 6.381 0 0 1 .104-1.405c-.457.65-1.117.9-1.442 1.889.063-1.276 1.016-1.296 1.728-2.844.276-.678.677-1.262 1.122-1.926-.565.185-.987.317-1.64 1.032.464-1.096 3.143-2.328 4.37-3.521-.368.078-1.873.116-2.497-.301 1.132.307 3.65-.044 4.6-.694-.656.944-2.085.998-3.824 2.876.224-.175.519-.353.787-.48Zm1.307-.109c1.093-.59 3.766-1.89 1.954-3.291-.247-.19-.518-.361-.747-.575-.283.219.107.76.203.958 0 0-.603.06-.747.06-.932-.003-1.91-.555-1.415-1.613-.37.077-.416.433-.53.739-.238-.161-.65-.507-.969-.458.26.828 1.348 1.574 2.193 1.743-.855.465-2.438.811-3.272-.19-.585 1.131.23 1.605 1.028 2.197-3.04 1.388-2.592 2.945-4.587 4.17.259.122 1.413-.122 1.515-.137-.433.562-.635.8-.762 1.072-.12.256-.176.546-.295 1.17-.094.492-.266.983-.865 1.309.235.424.756.093.974.036-.03.044-.102.557-.298.803 1.024-.066.55-2.226 1.576-1.706.289.146.375.486.242.764-.673 1.389.857 2.613.773 3.83.377-.002.766-.012 1.012-.52.128.253.327.609.438.953l.306-.522c.189.863.994 1.662 2.083 1.733-.52-.821.102-1.943-1.159-3.136.157-.126.52-.371.65-.538-1.547.182-3.162-1.042-2.43-1.623.48-.38.69.408 1.43.276l-.29-.25c.102-.1.218-.232.338-.33-.313-.038-.657-.24-.657-.24l.187-.31c-1.813-.001-1.86-1.388-1.123-1.444.347-.025.794.613 1.91.48-.143-.172-.2-.431-.267-.624.27-.024.587-.022.841-.146-.545-.07-.683-.253-1.136-.597l.527-.193c-.764-.38-.718-1.046-.742-1.738.4.23.87.586 1.372.42.12-.04.196-.095.199-.22-.717-.281-1.176-1.384.54-2.312Zm15.02 4.078c.081.414.122.874.104 1.405a4.421 4.421 0 0 1-.315 1.54c.047.63-.01 1.709-.732 2.42.49-.623.596-1.634.553-2.029-.568 1.093-2.182 2.603-2.963 3.617.781-1.305 2.695-2.83 3.106-4.588-.264.273-.58.301-1.182.264.66-.08 1.03-.242 1.262-.68.035-.228.058-.47.066-.73.022-.696-.208-1.525-.69-2.433a1.697 1.697 0 0 1-1.454 1.614c.904-.396 1.437-1.287 1.147-2.15a12.59 12.59 0 0 0-.639-.93c-.119-.151-.235-.299-.35-.435.122.44-.41.894-.767.97.194-.188.607-.8-.349-1.824.268.127.564.305.787.48-1.74-1.878-3.166-1.931-3.826-2.876.953.65 3.47 1 4.601.694-.623.417-2.129.379-2.497.3 1.226 1.194 3.907 2.426 4.37 3.521-.652-.714-1.076-.846-1.638-1.03.445.664.844 1.247 1.12 1.925.714 1.548 1.667 1.567 1.73 2.845-.326-.99-.986-1.24-1.443-1.89Zm1.92 1.766c-.12-.624-.173-.912-.294-1.168-.125-.274-.328-.51-.764-1.073.103.015 1.26.259 1.517.137-1.995-1.225-1.546-2.782-4.588-4.17.799-.592 1.613-1.065 1.029-2.198-.833 1.002-2.418.656-3.272.191.846-.17 1.934-.915 2.193-1.743-.32-.049-.733.297-.97.457-.114-.305-.158-.662-.529-.74.496 1.06-.483 1.612-1.417 1.616-.143 0-.745-.061-.745-.061.096-.198.485-.74.201-.958-.228.214-.498.385-.746.575-1.813 1.402.863 2.702 1.955 3.291 1.714.928 1.257 2.03.54 2.313.003.124.08.18.2.22.499.165.97-.191 1.37-.421-.024.691.024 1.357-.74 1.738l.526.193c-.454.344-.59.526-1.136.597.253.124.573.122.841.147-.069.191-.127.451-.268.623 1.117.133 1.566-.505 1.91-.48.734.056.691 1.443-1.123 1.445l.188.31s-.343.2-.658.24c.12.097.237.228.338.329l-.29.25c.74.132.95-.656 1.43-.276.733.581-.881 1.805-2.43 1.623.13.167.493.412.65.54-1.261 1.19-.641 2.313-1.157 3.135 1.085-.072 1.891-.87 2.082-1.734l.306.522c.11-.344.311-.7.437-.954.245.509.637.519 1.014.522-.085-1.218 1.444-2.442.773-3.83-.134-.279-.048-.62.241-.765 1.027-.52.55 1.64 1.576 1.706-.196-.246-.27-.759-.297-.803.217.057.738.39.972-.037-.597-.325-.77-.817-.865-1.309Z" fill="#FFFFFE"></path><path d="M17.476 14.021c-.287.394-.808.658-1.401.658-.139 0-.273-.015-.399-.04.035.163.12.33.292.475-.07.47.134.912.64 1.027.053.24.201.422.452.508l-.352.407a.523.523 0 0 1-.456.188l-1.574-.18c.068-.174-.114-.376-.612-.29l.618-1.73-.377-.803-.714.611-.053 1.815-.307-.15c-.397-.172-.513.55-.136.553l.152.002c-.01.074.014.156.073.182-.071.03-.093.163-.004.21-.09.044-.103.181-.03.24-.078.134-.092.423.183.496.227.06.37-.184.416-.325l2.449.758c.344.1.593.044.88-.209l.64-.558c-.08.365.05.695.328.803 0 0-.044.335-.027.474l.857.002h1.35v-4.028c0-.375.106-.75.239-1.096h-3.127Zm-3.668 6.777.048.06c.067.082.105.063.181.019l.112-.059c.07-.052.525.121.551-.257.05.282-.286.878-.084 1.21l.274.448-.894.013a.188.188 0 0 0-.176.113l-.233.485c-.06.127-.057.26.02.349l.158.177s.13-.11.171-.253l-.07-.072c-.058-.056-.058-.108-.026-.178l.144-.298c.056-.118.112-.143.239-.113l.722.156c.053.012.138.038.19-.05.088-.157.245-.167.403-.143.396.06 1.311.154 1.638-.227.383.509 1.132.509 1.082.775l-.158.874h.239l.145-.893c.016-.104.08-.248-.032-.328-.046-.036-.067-.053-.172-.233-.136-.238-.129-.595-.26-.902.124-.146.259-.196.377-.17.263.066.335.52.71.893-.043-.166-.06-.347-.15-.504 0 0 .26.202.328.438.043.148.086.256.22.324.088.032.193-.01.298-.137 0 0-.247-.351-.428-.58-.248-.317-.58-.633-1.032-.597a.992.992 0 0 0-.41.155c-.513-.288-.912.016-1.071.016l-.961-.057c-.19-.012-.338-.231-.338-.231-.025-.813-.678-1.137-.904-1.137 0 0 .021-.147-.038-.198l-.201.252-.557-.203.437.357-.475.551c-.048.055-.04.126-.017.155Z" fill="#FFFFFE"></path><path d="M13.177 21.941c-.134.104-.128.25-.047.412l.08.15.21-.16-.047-.103c-.034-.073-.032-.147.027-.193l.3-.227c.085-.062.112-.068.202-.055l.635.133s-.096-.14-.128-.282l-.599-.08c-.084-.01-.135.026-.21.082l-.423.323Zm4.064 1.886h.24l.384-.95c.014-.032.032-.047.047-.074a2.802 2.802 0 0 1-.419-.2c.097.13.173.185.133.305l-.385.92Zm-.752-13.292.9-.345s0 .11-.259.287c-.23.16-.64.33-.64.33v-.272Zm0-.658 1.023-.365s-.122.13-.382.307c-.23.16-.64.33-.64.33v-.272Zm0-.619 1.12-.412s-.22.177-.479.355c-.23.16-.64.33-.64.33v-.273Zm.955 1.725.445-2.557L16.204 9v2.637l1.24-.653Z" fill="#FFFFFE"></path><path fill-rule="evenodd" clip-rule="evenodd" d="m14.445 13.246.037.059h.347l.004.06a.777.777 0 0 0 .037.178c.053.166.16.339.333.479.199.16.487.277.87.277.83 0 1.206-.538 1.242-.934l.002-.06h.348l.037-.06c.328-.512.728-1.081 1.193-1.162l-1.267-.735-1.554.845-1.556-.845-1.265.735c.463.08.863.65 1.192 1.163Z" fill="#FFFFFE"></path><path d="M15.658 9.877v.272s-.409-.17-.64-.33c-.261-.178-.383-.307-.383-.307l1.023.365Zm0-.619v.273s-.409-.17-.64-.33c-.261-.178-.48-.355-.48-.355l1.12.412Zm0 1.55s-.409-.171-.64-.33c-.261-.177-.261-.288-.261-.288l.901.345v.273Zm.284.828V9l-1.684-.573.443 2.557 1.24.653Zm.132-4.338c-.963 0-1.685.315-1.842.685l1.842.728 1.84-.728c-.156-.37-.877-.685-1.84-.685Zm0-1.056c.71 0 1.42.215 1.898.494.078-.257.162-.44.275-.65l-.437.066-.352-.753-.658.35-.725-.717-.727.717-.658-.35-.355.753-.435-.067c.114.21.196.394.276.651a3.95 3.95 0 0 1 1.899-.494ZM28.09 12.04c.239-.03.43-.11.663-.284-.503-.134-1.557-.515-2.457-.344-.297.039-.462.16-.356.228.483.32 1.08 1.064 1.515 1.932.381-.474.221-1.096.141-1.274.761.458.96.681 1.314.594-.188-.289-.454-.548-.82-.852ZM4.692 13.57c.434-.868 1.032-1.611 1.516-1.932.108-.068-.06-.19-.355-.228-.9-.17-1.957.21-2.46.344.236.174.425.253.664.284-.366.305-.631.563-.82.852.356.087.554-.136 1.314-.595-.078.18-.24.801.14 1.275Z" fill="#FFFFFE"></path><path d="m8.546 22.964-.306.522c-.11-.344-.31-.7-.438-.954-.246.509-.635.519-1.012.522.084-1.217-1.446-2.442-.773-3.83.134-.279.047-.62-.242-.765-1.026-.52-.552 1.64-1.576 1.706.196-.246.269-.759.299-.803-.219.057-.74.39-.975-.036.599-.326.77-.817.865-1.31.12-.623.175-.912.295-1.168.127-.274.329-.51.762-1.073-.102.015-1.256.259-1.516.137 1.996-1.225 1.547-2.782 4.588-4.17-.797-.592-1.613-1.065-1.028-2.197.834 1.001 2.417.655 3.272.19-.844-.17-1.934-.915-2.192-1.743.318-.049.73.297.968.458.114-.307.16-.662.53-.74-.495 1.06.483 1.61 1.415 1.615.144 0 .747-.06.747-.06-.096-.2-.486-.74-.203-.959.229.214.5.385.747.575 1.812 1.402-.861 2.702-1.955 3.291-1.715.928-1.256 2.03-.54 2.313-.002.124-.079.18-.198.22-.501.165-.972-.192-1.372-.421.024.692-.023 1.357.742 1.738l-.527.192c.453.345.59.527 1.136.598-.254.124-.57.122-.841.147.068.192.124.451.267.623-1.116.133-1.563-.505-1.91-.48-.736.056-.69 1.443 1.123 1.445l-.188.31s.344.2.659.24c-.12.097-.236.229-.338.329l.29.25c-.741.132-.95-.656-1.43-.276-.733.581.882 1.805 2.43 1.623-.13.167-.494.412-.65.54 1.26 1.19.638 2.313 1.157 3.135-1.088-.073-1.893-.87-2.082-1.734Zm1.419-1.34c.35-.278.64-.417.626-1.09-.526.27-2.017.255-2.64-.602-.177-.244.012-.367.182-.175.426.484 1.216.265 1.504.125a1.13 1.13 0 0 0-.281-.476c.108-.106.413-.264.475-.536-.163-.088-.796-.151-.796-.151.102-.099.229-.235.153-.597-.646.199-1.444-.071-1.626-.31-.179-.235.003-.456.154-.3.321.338 1.909.726 2.5.137-.22-.06-.462-.256-.505-.378.546-.055.982-.377 1.018-.779-.302 0-.874-.022-1.068-.168.262-.097.428-.192.51-.485-.999-.06-1.078-.803-1.084-.926.651.375 1.797.208 1.5-.716-.54-.029-1.086-.905.403-1.709 1.354-.733 2.893-1.523 2.756-2.823-.088-.833-1.458-1.4-1.632-1.821-.572.272-.687.588-.429 1.117 0 0-1.274.127-1.375-.657-.043-.352.192-.681.444-.932-.143 0-1.103-.257-1.392.525-.538-.367-.998-.354-1.36.034.577.343.935 1.52 1.892 1.868-.68.369-1.78.215-2.422-.918-.608.915-.957 1.821.345 2.788-2.37 1.08-2.353 3.141-4.415 4.124.209.561.65.561 1.212.473-.892 1.159-.132 2.371-1.544 2.867.133.472.398.85.918.712-.148.23-.245.226-.476.479.772.486 1.687.134 1.894-1.425.037-.279.42-.104.288.17-.88 1.817 1.344 3.185.557 4.52.694-.03 1.223-.084 1.512-.317.142.279.227.556.196.83.384-.078.523-.305.55-.565.25.733 1.148 1.515 2.584 1.515-.762-1.085-.052-2.188-1.128-3.429Z" fill="#1A1919"></path><path d="M6.557 18.615c.262.273.58.301 1.181.264-.661-.08-1.032-.242-1.264-.68a6.616 6.616 0 0 1-.065-.73c-.02-.696.208-1.525.69-2.433-.004.57.448 1.465 1.455 1.614-.905-.396-1.438-1.287-1.148-2.15.189-.302.402-.613.64-.93.119-.151.235-.299.349-.435-.122.44.41.894.766.97-.193-.188-.607-.8.35-1.824a4.5 4.5 0 0 0-.786.48c1.738-1.878 3.168-1.931 3.824-2.876-.95.65-3.468 1-4.6.694.624.417 2.129.379 2.497.3-1.227 1.194-3.906 2.426-4.37 3.522.653-.716 1.075-.847 1.64-1.031-.445.664-.846 1.247-1.122 1.925-.712 1.548-1.665 1.568-1.728 2.845.325-.99.984-1.241 1.442-1.89-.08.414-.119.874-.104 1.405.016.578.132 1.085.315 1.54-.046.63.01 1.709.733 2.42-.491-.622-.597-1.634-.553-2.029.566 1.093 2.182 2.603 2.962 3.617-.78-1.305-2.694-2.829-3.104-4.588Zm17.877-5.245c.561.184.985.315 1.637 1.03-.462-1.095-3.144-2.327-4.37-3.52.368.077 1.873.116 2.497-.301-1.13.307-3.648-.044-4.6-.694.658.944 2.086.998 3.825 2.876a4.427 4.427 0 0 0-.787-.48c.956 1.024.543 1.636.35 1.825.356-.077.888-.531.767-.97.114.136.23.283.35.435.239.316.45.627.638.928.29.864-.243 1.755-1.147 2.151a1.696 1.696 0 0 0 1.454-1.614c.482.908.712 1.737.69 2.434a6.422 6.422 0 0 1-.065.728c-.232.44-.603.6-1.263.68.602.038.918.01 1.182-.263-.41 1.76-2.324 3.283-3.106 4.588.782-1.014 2.395-2.524 2.963-3.617.044.395-.063 1.407-.553 2.029.723-.711.78-1.79.732-2.421.183-.454.298-.961.315-1.539a6.236 6.236 0 0 0-.103-1.405c.457.65 1.117.9 1.443 1.89-.063-1.277-1.016-1.297-1.73-2.845-.276-.678-.675-1.261-1.12-1.925Z" fill="#1A1919"></path><path d="M27.652 19.362c.028.044.101.557.297.803-1.025-.066-.55-2.226-1.576-1.706-.289.146-.375.486-.241.764.67 1.389-.858 2.613-.773 3.83-.377-.002-.77-.012-1.014-.52-.126.253-.327.609-.437.952l-.306-.52c-.191.862-.997 1.661-2.082 1.733.516-.822-.105-1.944 1.158-3.136-.159-.127-.52-.372-.652-.539 1.55.182 3.164-1.042 2.43-1.623-.479-.38-.69.408-1.428.276l.29-.25c-.102-.1-.22-.232-.34-.33.316-.038.66-.239.66-.239l-.19-.31c1.815-.002 1.858-1.39 1.124-1.445-.344-.025-.793.613-1.91.48.14-.172.2-.431.268-.623-.268-.026-.588-.023-.842-.147.546-.07.683-.253 1.137-.597l-.526-.193c.764-.381.716-1.046.74-1.738-.4.23-.871.586-1.37.42-.12-.04-.197-.095-.2-.22.717-.281 1.174-1.384-.54-2.312-1.092-.59-3.768-1.89-1.955-3.291.248-.19.517-.361.745-.575.285.219-.104.76-.2.958 0 0 .602.06.745.06.934-.003 1.913-.555 1.417-1.614.371.077.415.434.529.739.237-.16.65-.506.97-.457-.26.828-1.347 1.574-2.193 1.743.854.465 2.439.811 3.272-.19.584 1.132-.23 1.605-1.03 2.197 3.043 1.387 2.594 2.945 4.59 4.17-.259.122-1.415-.122-1.518-.137.436.562.638.8.764 1.073.12.256.174.544.294 1.168.096.493.268.984.865 1.31-.234.425-.755.093-.972.036Zm-.118-3.096c.561.088 1.003.088 1.212-.473-2.063-.983-2.045-3.044-4.416-4.123 1.303-.968.952-1.874.347-2.789-.641 1.133-1.744 1.287-2.422.918.954-.347 1.314-1.525 1.892-1.869-.361-.387-.823-.4-1.362-.034-.29-.78-1.249-.524-1.393-.524.252.251.49.58.445.932-.1.784-1.374.657-1.374.657.257-.53.143-.845-.43-1.117-.174.42-1.542.988-1.631 1.82-.137 1.3 1.403 2.09 2.756 2.824 1.488.804.942 1.68.403 1.71-.299.924.847 1.09 1.5.715-.004.123-.086.865-1.086.926.085.293.25.388.511.485-.195.146-.765.168-1.067.168.036.402.472.724 1.019.78-.043.12-.286.317-.505.377.59.589 2.177.2 2.5-.137.148-.156.329.064.153.3-.183.239-.98.509-1.627.31-.074.362.05.5.153.597 0 0-.633.063-.796.151.061.272.368.43.476.536a1.136 1.136 0 0 0-.282.476c.29.14 1.08.358 1.504-.125.172-.192.36-.07.184.174-.623.858-2.115.872-2.642.604-.014.672.276.81.626 1.088-1.078 1.241-.365 2.344-1.127 3.43 1.435 0 2.332-.784 2.585-1.516.028.26.166.487.548.565-.03-.274.056-.551.195-.83.29.233.82.288 1.513.317-.785-1.335 1.438-2.703.556-4.52-.13-.274.253-.448.29-.17.206 1.56 1.122 1.911 1.894 1.425-.232-.253-.328-.249-.476-.48.52.139.784-.239.918-.711-1.411-.496-.651-1.708-1.544-2.867ZM13.177 21.94l.423-.322c.076-.057.126-.093.211-.082l.598.079c.032.142.128.282.128.282l-.635-.133c-.09-.011-.117-.007-.201.054l-.301.228c-.06.046-.062.12-.028.193l.049.104-.21.16-.08-.152c-.082-.162-.088-.308.046-.41Zm.97-1.123-.11.059c-.076.044-.114.063-.181-.02l-.048-.06c-.024-.028-.031-.1.018-.154l.473-.55-.436-.358.555.204.203-.253c.06.05.039.197.039.197.225 0 .878.325.903 1.138 0 0 .148.219.336.23l.963.058c.159 0 .558-.304 1.07-.016.13-.078.27-.14.411-.157.452-.033.784.282 1.032.599.181.229.429.58.429.58-.107.127-.211.17-.3.137-.133-.068-.176-.176-.22-.324-.067-.236-.326-.438-.326-.438.088.158.106.338.149.503-.377-.371-.447-.827-.71-.89-.117-.028-.253.022-.378.168.132.307.125.664.261.902.104.179.125.195.172.233.11.08.048.224.031.328l-.143.894h-.24l.158-.875c.049-.267-.699-.267-1.082-.775-.327.382-1.242.286-1.638.227-.16-.024-.315-.014-.403.143-.052.088-.138.062-.19.05l-.722-.156c-.127-.03-.182-.005-.239.112l-.144.299c-.032.07-.03.121.028.178l.068.073c-.041.143-.171.252-.171.252l-.158-.177c-.077-.09-.08-.22-.02-.346l.233-.488c.028-.054.078-.113.176-.113l.893-.014-.273-.445c-.204-.334.134-.93.084-1.211-.026.377-.482.205-.552.256Zm3.718 2.06-.385.95h-.24l.386-.92c.04-.12-.036-.175-.133-.305.144.08.246.134.419.2-.015.027-.033.042-.047.074Zm-4.7-.108.433-.368-.066-.132c-.047-.094-.021-.1.028-.137l.23-.171c.052-.043.108-.038.173-.023l.687.162h-.725c-.168.01-.216.075-.277.2l-.05.1-.186.384c-.063.132-.097.308.07.506l.132.157-.267.54h.225l.184-.374c.015-.014.288-.263.346-.521-.079-.064-.135-.11-.091-.199l.083-.18c.028-.059.037-.083.117-.067l.722.156c.09.025.222.064.318-.081.099-.15.112-.135.341-.112l.369.04c.503.047 1.006-.079 1.202-.234.068.157.204.276.268.397.023.045-.016.109-.047.188l-.413.988h.637l.361-.901a.539.539 0 0 1 .12-.19l-.207 1.09h.618l.164-1.078c.037-.24.015-.318-.1-.416-.258-.218-.252-.675-.335-.952a.243.243 0 0 1 .155-.031c.135.012.236.356.395.578.317.445.749.936 1.244.244-.048-.079-.1-.15-.16-.22l-.138-.161c-.08-.09-.463-.528-.623-.686-.363-.366-.92-.31-1.143-.133-.503-.264-1.033.014-1.159.003l-.866-.052a.171.171 0 0 1-.142-.084l.161-.052c-.15-.627-.53-1.152-1.191-1.242 0 0-.039-.198-.14-.237l-.197.233a.655.655 0 0 0-.167.047l-.844-.315.634.641s-.33.466-.423.561c-.062.087-.056.155.014.239l.123.161c.063.084.133.08.234.029l.14-.072c.06-.051.263.049.35-.031a2.48 2.48 0 0 0-.096.497l-.57-.068c-.124-.017-.18 0-.256.059l-.486.374c-.158.121-.207.331-.11.536l.197.41Zm1.853-12.293c.231.16.64.33.64.33v-.272l-.901-.345s0 .11.261.287Zm.64-.328v-.272l-1.023-.365s.122.13.383.307c.231.16.64.33.64.33Zm0-.618v-.273l-1.12-.412s.219.177.48.355c.231.16.64.33.64.33Z" fill="#1A1919"></path><path d="M18.807 13.246h1.146c-.047-.167-.225-.335-.56-.335a.645.645 0 0 0-.586.335Zm-1.199-4.4-1.119.412v.273s.41-.17.641-.33c.26-.178.478-.355.478-.355Zm-.218 1.344-.9.345v.273s.41-.171.64-.33c.26-.177.26-.288.26-.288Zm.122-.678-1.023.365v.272s.41-.17.641-.33c.26-.178.382-.307.382-.307Zm-4.76 3.4c-.335 0-.513.167-.56.334h1.147a.648.648 0 0 0-.588-.335Z" fill="#1A1919"></path><path d="m16.074 8.71-1.842-.727c.157-.37.879-.685 1.842-.685.963 0 1.684.315 1.84.685l-1.84.728Zm1.37 2.273-1.24.653V9l1.685-.573-.445 2.557Zm1.451 1.1c-.465.08-.865.65-1.193 1.163l-.036.059h-.35l-.001.06c-.037.396-.412.934-1.242.934-.383 0-.671-.117-.87-.277a1.024 1.024 0 0 1-.333-.479.81.81 0 0 1-.038-.178l-.003-.06h-.347l-.037-.06c-.33-.512-.729-1.081-1.192-1.162l1.265-.735 1.556.845 1.554-.845 1.267.735Zm1.708 1.938c-.133.346-.24.72-.24 1.096v4.028h-.468c-.213-.206-.393-.893-.393-.893-.116.248.018.748.142.893h-.603c-.15-.202-.28-.918-.28-.918-.18.206-.065.763.047.918h-.401c-.025-.286.057-.598.057-.598-.21-.039-.433-.149-.433-.382.107.099.15.097.297.094l.17-.134c-.565.019-.591-.602-.143-.892-.448.014-.783-.252-.62-.727-.318-.165-.43-.704-.195-.941-.17-.185-.199-.548-.09-.796-.225 0-.48-.09-.62-.244l-.036.013c.282-.115.52-.294.682-.517h3.127Zm-.239 8.001c0 .84-.388 1.479-1.034 1.832l.232-.47h-.224l-.297.602c-.307.117-.656.18-1.041.18-1.18 0-1.49.049-1.925.483-.438-.434-.749-.482-1.925-.482-.383 0-.732-.063-1.038-.178h.008l.297-.605h-.223l-.26.53a2.012 2.012 0 0 1-.181-.097l.214-.433h-.223l-.159.323c-.505-.372-.801-.952-.801-1.685v-2.641h8.58v2.641Zm-5.84-4.823.36.045c.028.197-.024.534-.152.721l-.351-.1c.093-.223.117-.43.143-.666Zm-.522-.265s.333-.016.426.02c.07.028.022.144-.067.131-.093-.01-.359-.151-.359-.151Zm-.022-1.318-.298 1.087.102-1.754.462-.395.236.516-.595 1.703.157-1.146c.015-.08-.05-.09-.064-.01Zm-.229 1.813c-.156.062-.315-.022-.266-.123.072.065.274.033.274.033l-.008.09Zm-.293.145c.072.07.29.043.29.043l.008.044c-.095.127-.359.07-.298-.087Zm-.343-.7c-.083-.056-.045-.177.047-.177.101.002.237.117.37.174 0 0-.35.048-.417.002Zm.332.964s.1.042.227.052c-.014.07-.068.137-.154.117-.07-.015-.103-.104-.073-.169Zm.235-.657c-.168.054-.242-.067-.234-.17.329-.12.476-.043.572.018.088.056.162.215.28.314-.019.135-.06.33-.109.46-.336-.086-.354-.382-.228-.563-.07-.082-.145-.103-.28-.06Zm1.46.096.36.043c.035.198-.032.619-.168.82l-.367-.107c.146-.192.2-.535.174-.756Zm.619.076.297.037c.048.247.017.674-.141.917l-.345-.1c.15-.206.222-.63.189-.854Zm.533.066h.006a.445.445 0 0 0 .233-.032c.16.23.286.753.093 1.078a1.09 1.09 0 0 1-.316-.045l-.08-.024c.163-.252.14-.698.064-.977Zm.454-.175.211-.207c.215.188.496.607.409 1.004l-.23.211a.819.819 0 0 1-.147.11c.143-.354-.04-.902-.243-1.118Zm1.236.118a.706.706 0 0 0-.107.211l-.256.235c.051-.374-.2-.818-.43-.998l.272-.267.054.055c-.09.238.087.708.467.764Zm-.68-1.812a.826.826 0 0 0 .038.822l-.105.103c-.46-.057-.641-.742-.641-.742-.01.062-.015.122-.014.183-.268-.1-.437-.338-.424-.664.102.057.216.097.337.118l.031-.2c-.32-.056-.508-.257-.58-.494-.015-.001-.028-.005-.043-.006.057.005.113.01.172.01.19 0 .37-.03.54-.08.133.19.37.326.607.352-.037.155-.019.353.082.598Zm-2.633-1.529c.222.304.581.528 1.007.616.036.16.122.335.291.477-.07.47.133.91.64 1.027.052.24.202.422.45.508l-.351.407a.519.519 0 0 1-.456.188l-1.574-.18c.068-.174-.113-.376-.611-.29l.619-1.73-.378-.803-.715.611-.053 1.815-.304-.15c-.4-.172-.516.55-.136.553l.15.002c-.009.074.013.156.072.181-.071.03-.093.165-.003.212-.09.043-.103.18-.03.24-.08.133-.091.422.184.495.226.06.367-.184.414-.325l2.449.758c.347.1.593.044.88-.209l.64-.558c-.08.365.051.695.33.803 0 0-.04.329-.028.476h-6.374v-4.028c0-.375-.109-.75-.237-1.096h3.124Zm-.413-5.595L15.941 9v2.637l-1.24-.653-.444-2.557Zm4.092-.314c0-.645-1.082-1.222-2.277-1.222-1.196 0-2.278.577-2.278 1.222l.024.158.476 2.738-2.258 1.317c-.24.14-.541.53-.58.92h.413c.068-.39.377-.824.953-.797.52.028.83.345 1.137.798l.079.12.113.177h-3.32c.243.49.475 1.01.475 1.574v6.905c0 1.777 1.365 2.623 2.843 2.623 1.14 0 1.295-.052 1.925.578.628-.63.78-.578 1.925-.578 1.476 0 2.841-.846 2.841-2.623v-6.905c0-.564.232-1.084.476-1.574h-3.324l.115-.178.079-.12c.305-.452.615-.77 1.137-.797.574-.027.884.407.952.798h.412c-.037-.391-.34-.78-.58-.921l-2.257-1.317.476-2.738.023-.158Z" fill="#1A1919"></path><path d="m20.168 16.624.004-.202c-.62-.015-.762-.745-.762-.745-.181.538.292.939.758.947Zm-.782 1.237-.062-.19c-.529.135-.802-.703-.802-.703-.169.608.42 1.04.864.893Zm.367-.776c-.631.1-.89-.634-.89-.634-.07.4.189.805.607.848-.095.522.39.79.81.604l-.061-.182c-.365.122-.707-.238-.466-.636Zm-.378-2.095.006-.202c-.833-.172-.764-.746-.764-.746-.18.54.293.94.758.948Z" fill="#1A1919"></path><path fill-rule="evenodd" clip-rule="evenodd" d="m14.096 23.384-.299.605h.224l.298-.605h-.223ZM14.545 23.384l-.296.605h.225l.295-.605h-.224ZM16.35 23.384l-.297.605h.223l.298-.605h-.225ZM16.801 23.384l-.298.605h.225l.297-.605H16.8ZM15.899 23.384l-.298.605h.224l.298-.605h-.224ZM18.534 23.99h.224l.298-.606h-.224l-.298.605ZM14.997 23.384l-.296.605h.224l.297-.605h-.225ZM15.447 23.384l-.298.605h.226l.298-.605h-.226Z" fill="#1A1919"></path><path d="M14.426 20.133c-.04 0-.076.04-.076.09 0 .05.036.092.076.092.043 0 .08-.041.08-.091 0-.052-.037-.091-.08-.091Zm-.09-13.98.354-.753.658.35.727-.718.726.717.657-.35.351.753.438-.067a3.31 3.31 0 0 0-.274.651c-.479-.279-1.189-.494-1.898-.494-.712 0-1.42.215-1.9.494a3.378 3.378 0 0 0-.275-.65l.435.066Zm1.739.329c.924 0 1.664.306 2.073.635 0 0 .123-.733.537-1.378l-.745.084-.39-.83-.749.39-.726-.72-.727.72-.75-.39-.39.83-.745-.084c.415.645.536 1.378.536 1.378.408-.329 1.15-.635 2.076-.635Z" fill="#1A1919"></path><path d="M16.835 4.999a.199.199 0 0 0 .213-.18c.01-.108-.147-.397-.147-.397s-.237.255-.245.364a.198.198 0 0 0 .179.213Zm1.22.442a.195.195 0 0 0 .266-.083c.052-.095.018-.422.018-.422s-.314.142-.366.239a.2.2 0 0 0 .082.266Zm-2.743-.442c.11-.011.19-.107.18-.213-.01-.11-.244-.364-.244-.364s-.158.29-.148.397a.198.198 0 0 0 .212.18Zm-1.22.442a.197.197 0 0 0 .082-.266c-.05-.097-.366-.239-.366-.239s-.033.327.02.422c.05.097.169.135.265.083Zm13.504 6.856c.08.179.24.8-.141 1.274-.434-.868-1.031-1.611-1.515-1.932-.105-.068.059-.19.356-.228.9-.17 1.954.21 2.457.344-.234.174-.424.253-.663.282.366.307.632.565.82.854-.354.087-.553-.136-1.314-.594Zm1.135-.148c.26-.092.461-.34.561-.57-.661-.095-2.419-.833-3.864-.232.541-.513 1.027-.58 1.073-1.319.225.162.604.253.818-.132-.15-.44-.525-.084-.578-.205-.074-.168.474.052.591-.52-.426-.146-.553.202-.63.121-.07-.077.271-.223.02-.684-.444.26-.213.552-.306.585-.114.045-.025-.312-.515-.296-.048.527.461.544.378.628-.101.102-.234-.303-.605-.098.007.426.351.66.707.559-.058.809-.8.658-1.352 1.569 1.17.6 1.7 1.645 2.42 2.369.237-.169.643-.919.643-.919.78.603 1.327.002 1.327.002-.268-.274-.277-.483-.688-.858ZM15.857 26.498l-.507-.019-.058.203.063.003c.021 0 .021-.04.04-.06a.459.459 0 0 1 .174-.016l.213.016c-.125.26-.452.505-.448.678.005.092.098.11.154.107.102-.003.134-.075.16-.186.062-.256.186-.451.276-.745l-.063.002-.004.017Zm.346.302.008-.156h.44l-.023-.174c-.12.004-.297.043-.459.044l-.03.34c.203-.008.337.081.337.295 0 .08-.053.228-.145.24a.094.094 0 0 1-.063-.015c-.044-.033.014-.07.014-.125 0-.07-.072-.096-.12-.087-.076.005-.103.054-.103.114 0 .126.186.16.266.16.18 0 .39-.1.39-.305 0-.27-.302-.325-.512-.33Zm1.083.14c-.168 0-.192-.245-.192-.364 0-.033.032-.08.07-.08.153 0 .195.332.207.426a.257.257 0 0 1-.085.017Zm-.107-.49c-.169 0-.307.117-.307.278 0 .253.29.337.507.24.026.198-.017.34-.096.344-.068 0-.059-.048-.068-.089-.018-.076-.083-.097-.15-.076-.07.019-.08.077-.069.121.032.1.164.102.227.095.277-.03.393-.223.393-.436 0-.248-.152-.478-.437-.478Zm-2.185-.053c-.023.03-.132.165-.366.34l.02.033c.025-.014.067-.033.137-.075l-.137.481c-.008.026-.04.029-.055.026l-.082-.012-.015.057.447.08.014-.057-.078-.017c-.023-.006-.037-.023-.033-.049l.204-.798-.056-.009Z" fill="#1A1919"></path><path d="m18.38 26.965-.396-1.29c.846-.175 1.434-.354 1.883-.527v.804l.697.281c-.589.269-1.32.535-2.183.732Zm-2.305.755a9.443 9.443 0 0 1-2.216-.28l.418-1.353c.278.065.972.15 1.798.15.826 0 1.517-.085 1.796-.15l.42 1.354c-.66.161-1.43.28-2.216.28Zm-4.492-1.487.698-.28v-.805c.449.173 1.037.352 1.882.527l-.396 1.29a11.46 11.46 0 0 1-2.184-.732Zm8.5-.448v-.987c-.763.35-1.735.633-2.983.745l-.057.353c.106.015.24.028.42.04-.463.063-1.06.094-1.388.094a11.9 11.9 0 0 1-1.39-.094c.18-.012.313-.025.42-.04l-.057-.353c-1.25-.112-2.222-.395-2.983-.745v.987l-1.035.425c.767.399 1.649.724 2.669.987l-.12.413a9.398 9.398 0 0 0 2.496.347 9.39 9.39 0 0 0 2.495-.347l-.12-.413c1.018-.263 1.903-.588 2.67-.987l-1.037-.425ZM3.237 12.891c.189-.289.454-.547.821-.852-.24-.03-.429-.11-.665-.284.503-.134 1.56-.515 2.46-.344.296.039.463.16.354.228-.483.32-1.08 1.064-1.515 1.931-.38-.473-.22-1.094-.14-1.273-.76.458-.959.681-1.315.594Zm.818.114s.407.75.644.918c.721-.723 1.25-1.768 2.42-2.368-.554-.911-1.296-.758-1.351-1.57.355.101.699-.133.706-.558-.372-.204-.504.202-.605.098-.083-.086.426-.1.378-.627-.49-.016-.4.34-.516.295-.092-.033.138-.326-.307-.585-.25.463.092.607.021.684-.075.081-.204-.267-.63-.12.116.57.667.35.592.52-.053.12-.429-.236-.576.204.211.385.591.294.814.133.048.741.533.803 1.075 1.318-1.445-.6-3.203.137-3.867.234.103.228.303.476.563.566-.41.378-.42.586-.687.86 0 0 .546.601 1.326-.002Zm11.386-.55v.434c.15-.18.44-.144.44-.144v.625s-.01.31-.12.442h.627c-.11-.133-.12-.442-.12-.442v-.625s.29-.036.44.144v-.435H15.44Z" fill="#1A1919"></path></svg><svg aria-label="Twitter logo." fill="none" id="twitter" viewBox="0 0 26 26"><path d="M21.35 25.555a78.532 78.532 0 0 1-16.7 0 4.734 4.734 0 0 1-4.205-4.206 78.529 78.529 0 0 1 0-16.699A4.734 4.734 0 0 1 4.65.445a78.529 78.529 0 0 1 16.7 0 4.734 4.734 0 0 1 4.205 4.205 78.53 78.53 0 0 1 0 16.7 4.734 4.734 0 0 1-4.206 4.205Z" fill="url(#twitter_0)"></path><path d="M24.14 5.59a4.2 4.2 0 0 0-3.73-3.73 69.712 69.712 0 0 0-14.82 0 4.201 4.201 0 0 0-3.73 3.73 69.71 69.71 0 0 0 0 14.819 4.201 4.201 0 0 0 3.73 3.732c4.935.526 9.885.526 14.819 0a4.2 4.2 0 0 0 3.732-3.732 69.678 69.678 0 0 0 0-14.818Z" fill="url(#twitter_1)"></path><path d="M.39 20.81c.017.18.036.36.055.54a4.734 4.734 0 0 0 4.206 4.205 78.53 78.53 0 0 0 16.698 0 4.734 4.734 0 0 0 4.206-4.205c.02-.18.038-.36.056-.54H.39Z" fill="url(#twitter_2)"></path><path d="M25.994 12.086 20.598 6.69a6.44 6.44 0 0 1-1.54.643c-.226.061-.41.094-.542.112a3.352 3.352 0 0 0-5.683 3.01c-.773-.011-3.285-.217-5.68-2.27l-1.13-1.13s-1.325 2.313.624 4.068c.085.095.18.19.282.282l.025.027c-.256-.017-1.025-.094-1.47-.408 0 0-.09 1.413 1.088 2.454l.951.959c-.29.024-.61.018-.833-.08 0 0 .198.838.96 1.508l1.332 1.34a6.896 6.896 0 0 1-4.04.899L13.024 26c2.776 0 5.553-.15 8.325-.445a4.734 4.734 0 0 0 4.206-4.206 78.65 78.65 0 0 0 .44-9.263Z" fill="url(#twitter_3)"></path><path d="M21.058 7.991c-.575.301-1.442.44-1.729.48l-.007-.04c.977-.604 1.276-1.741 1.276-1.741a6.44 6.44 0 0 1-1.54.643 4.44 4.44 0 0 1-.542.112 3.351 3.351 0 0 0-5.683 3.01c-.896-.013-4.13-.288-6.81-3.4 0 0-1.492 2.603 1.017 4.382 0 0-1.016-.032-1.556-.413 0 0-.159 2.508 2.73 3.302 0 0-1.015.254-1.524.032 0 0 .508 2.159 3.048 2.318 0 0-1.821 1.668-4.796 1.428A9.424 9.424 0 0 0 10 19.566a9.469 9.469 0 0 0 9.466-9.664c.002-.04.002-.078.002-.117v-.081c.966-.645 1.59-1.713 1.59-1.713Z" fill="#fff"></path><defs><linearGradient id="twitter_0" x1="8.633" y1="3.656" x2="15.209" y2="17.725" gradientUnits="userSpaceOnUse"><stop stop-color="#00C3FF"></stop><stop offset="1" stop-color="#00B0ED"></stop></linearGradient><linearGradient id="twitter_1" x1="18.499" y1="15.95" x2="-19.276" y2="-4.314" gradientUnits="userSpaceOnUse"><stop stop-color="#00B0ED" stop-opacity="0"></stop><stop offset="1" stop-color="#00A2CE"></stop></linearGradient><linearGradient id="twitter_2" x1="13" y1="22.211" x2="13" y2="25.618" gradientUnits="userSpaceOnUse"><stop stop-color="#00B0ED" stop-opacity="0"></stop><stop offset="1" stop-color="#00A2CE"></stop></linearGradient><linearGradient id="twitter_3" x1="24.853" y1="24.48" x2="12.152" y2="11.778" gradientUnits="userSpaceOnUse"><stop stop-color="#00B0ED" stop-opacity="0"></stop><stop offset="1" stop-color="#00A2CE"></stop></linearGradient></defs></svg><svg aria-label="Visa and Mastercard logoes." fill="none" id="visa-mastercard" viewBox="0 0 32 32"><g opacity=".9"><path opacity=".9" fill-rule="evenodd" clip-rule="evenodd" d="M14.053 15.165h5.692v10.272h-5.692V15.165Z" fill="#FF5F00"></path><path opacity=".9" fill-rule="evenodd" clip-rule="evenodd" d="M14.424 20.3c0-2.082.97-3.939 2.475-5.135a6.459 6.459 0 0 0-4.001-1.402c-3.59 0-6.497 2.928-6.497 6.538 0 3.61 2.908 6.538 6.497 6.538a6.415 6.415 0 0 0 4.001-1.402 6.546 6.546 0 0 1-2.475-5.136Z" fill="#EB001B"></path><path opacity=".9" fill-rule="evenodd" clip-rule="evenodd" d="M27.418 20.3c0 3.61-2.908 6.54-6.497 6.54a6.415 6.415 0 0 1-4.001-1.403 6.546 6.546 0 0 0 2.475-5.136c0-2.083-.97-3.94-2.496-5.136a6.562 6.562 0 0 1 4.022-1.402c3.59 0 6.497 2.928 6.497 6.538Z" fill="#F79E1B"></path><path opacity=".9" d="m15.25 4.873-1.61 7.487h-1.939l1.63-7.487h1.918Zm8.167 4.826 1.01-2.805.578 2.826h-1.588V9.7Zm2.166 2.661h1.794L25.81 4.873h-1.65a.87.87 0 0 0-.826.557l-2.908 6.93h2.042l.392-1.114h2.475l.248 1.114Zm-5.054-2.454c.02-1.98-2.743-2.084-2.722-2.97 0-.269.247-.557.825-.62.288-.04 1.052-.061 1.918.33l.33-1.567a4.92 4.92 0 0 0-1.815-.33c-1.918 0-3.259 1.01-3.28 2.475-.02 1.073.97 1.692 1.692 2.042.742.371 1.01.619 1.01.928 0 .516-.618.722-1.155.743-.97.02-1.547-.268-2-.474l-.351 1.65c.454.206 1.279.391 2.145.391 2.063-.02 3.383-1.03 3.403-2.598Zm-8.023-5.033L9.35 12.36H7.308L5.741 6.379c-.083-.372-.165-.495-.433-.66-.475-.248-1.238-.495-1.919-.64l.042-.206h3.3c.433 0 .783.289.887.763l.825 4.331 2.021-5.094h2.042Z" fill="#2A2A6C"></path></g></svg><svg aria-label="Загрузите на Window Store." fill="none" id="window-store" viewBox="0 0 100 34"><path fill-rule="evenodd" clip-rule="evenodd" d="M93.019.978H6.989C1.855.978 1 2.71 1 6.832v20.35C1 31.301 2.759 33 6.984 33h86.035c4.228 0 6.049-1.702 6.049-5.823V6.832c0-4.121-1.822-5.854-6.05-5.854Z" fill="#000"></path><path d="m14.97 15.173-3.407.467v2.533h3.406v-3Zm-.004 6.648v-3.223h-3.402v2.756l3.402.467Zm4.726-7.288-4.292.615v3.025h4.292v-3.64ZM15.4 18.598v3.248l4.29.615v-3.863H15.4Zm11.257 7.404-3.046 1.082-15.352-3V13.206l15.348-3 3.05 1.106v14.69ZM12.998 11.605l-.552.098v-.067c0-.88-.002-1.761.001-2.642.002-.403.05-.8.187-1.184.2-.56.58-.966 1.123-1.228.33-.16.678-.262 1.034-.345.211-.05.423-.1.637-.137.192-.034.386-.055.58-.077a2.74 2.74 0 0 1 .562 0c.43.041.818.174 1.125.483.214.216.347.476.436.76.064.202.103.408.129.618.032.26.041.521.042.783v1.903l-.551.099v-.071c0-.705.001-1.41-.002-2.115a3.123 3.123 0 0 0-.1-.842c-.076-.268-.199-.509-.417-.696a1.3 1.3 0 0 0-.597-.281 2.355 2.355 0 0 0-.738-.027 6.42 6.42 0 0 0-1.557.383 2.43 2.43 0 0 0-.707.399c-.287.238-.465.54-.554.895-.056.218-.08.44-.08.665v2.626ZM20.799 10.079l-.547.097-.003-.062c0-.22.003-.441 0-.662a9.86 9.86 0 0 0-.025-.554 1.203 1.203 0 0 0-.09-.385.639.639 0 0 0-.479-.38 1.887 1.887 0 0 0-.549-.03c-.087.006-.175.019-.262.028h-.024l-.082-.535c.078-.011.156-.027.235-.033.19-.014.379-.031.568-.032.207 0 .412.028.604.115a.907.907 0 0 1 .472.525c.078.198.115.405.14.615.048.419.044.84.044 1.26l-.002.033Z" fill="#fff"></path><path d="M17.113 7.97c.046.095.06.407.047.556-.124.06-.25.117-.374.18a1.466 1.466 0 0 0-.388.276c-.161.163-.246.361-.292.579a3.245 3.245 0 0 0-.055.674l.002.735-.003.044-.547.097v-.07c.002-.345-.004-.691.007-1.037.01-.338.06-.672.19-.99a1.47 1.47 0 0 1 .67-.741 4.32 4.32 0 0 1 .727-.3l.016-.002ZM32.035 14.336v-.845c.428.296.915.444 1.46.444.358 0 .643-.08.855-.242a.778.778 0 0 0 .317-.651c0-.594-.43-.89-1.29-.89h-.627v-.69h.59c.365 0 .648-.074.848-.223.2-.148.3-.357.3-.626a.686.686 0 0 0-.254-.558c-.17-.14-.404-.21-.7-.21-.452 0-.892.134-1.32.4V9.46c.42-.215.906-.322 1.457-.322.547 0 .979.122 1.293.365.315.244.472.563.472.959 0 .685-.352 1.117-1.054 1.298v.014c.375.043.674.178.896.409.222.23.333.514.333.852 0 .487-.187.876-.56 1.165-.372.29-.882.434-1.529.434-.642 0-1.137-.1-1.487-.297ZM38.673 12.678l-.818.112c-.254.032-.445.092-.573.18-.128.087-.192.241-.192.461a.5.5 0 0 0 .177.395c.118.103.276.154.474.154a.885.885 0 0 0 .667-.276.966.966 0 0 0 .265-.696v-.33Zm.852 1.866h-.856v-.594h-.015c-.27.455-.664.683-1.184.683-.383 0-.682-.102-.9-.304-.216-.203-.325-.471-.325-.805 0-.717.424-1.135 1.271-1.254l1.157-.16c0-.54-.264-.811-.792-.811-.464 0-.882.156-1.255.467v-.753c.41-.237.885-.356 1.423-.356.984 0 1.476.473 1.476 1.417v2.47ZM42.914 11.432h-1.45v3.112h-.886v-3.798h2.336v.686ZM44.508 12.486v.47c0 .277.09.512.272.705.181.193.411.29.69.29a.91.91 0 0 0 .77-.373c.187-.249.28-.596.28-1.04 0-.374-.087-.666-.26-.878-.174-.211-.41-.317-.706-.317a.962.962 0 0 0-.76.327c-.19.217-.286.49-.286.816Zm.022 1.498h-.015v2.306h-.882v-5.544h.882v.668h.015c.302-.505.743-.757 1.324-.757.495 0 .88.17 1.157.508.276.339.415.794.415 1.365 0 .633-.156 1.14-.468 1.52-.312.381-.739.572-1.279.572-.497 0-.88-.213-1.149-.638ZM51.678 10.746l-1.757 4.406c-.366.786-.878 1.18-1.537 1.18a1.89 1.89 0 0 1-.465-.049v-.716c.14.045.267.067.381.067.33 0 .576-.158.738-.475l.263-.623-1.549-3.79h.978l.928 2.76c.01.034.033.125.069.274h.019c.012-.057.035-.146.068-.267l.974-2.767h.89ZM51.97 14.44v-.708c.33.178.716.267 1.157.267.622 0 .932-.183.932-.55 0-.365-.366-.548-1.1-.548h-.372v-.608h.358c.651 0 .977-.175.977-.523 0-.146-.069-.262-.207-.349-.138-.086-.327-.13-.565-.13-.363 0-.725.084-1.088.253v-.675a3.92 3.92 0 0 1 1.21-.216c1.032 0 1.548.342 1.548 1.024a.8.8 0 0 1-.222.568c-.149.158-.357.263-.626.315v.018c.297.023.535.117.715.282a.82.82 0 0 1 .27.63c0 .347-.155.622-.464.828-.31.205-.736.307-1.278.307-.543 0-.958-.062-1.244-.185ZM59.35 14.544h-.798v-2.785c-.05.099-.128.236-.232.411l-1.64 2.374h-.867v-3.798h.81v2.73c.028-.065.088-.176.179-.334l1.662-2.396h.887v3.798ZM63.136 11.432h-1.111v3.112h-.887v-3.112H60.02v-.686h3.115v.686ZM66.129 12.27c-.003-.309-.077-.549-.224-.72-.148-.173-.35-.259-.61-.259a.868.868 0 0 0-.644.271c-.176.18-.285.417-.325.708h1.803Zm.852.609h-2.655c.01.35.12.621.333.812.212.19.502.285.873.285a1.96 1.96 0 0 0 1.145-.363v.693c-.355.218-.824.327-1.408.327-.573 0-1.023-.173-1.348-.518-.326-.345-.49-.83-.49-1.455 0-.591.18-1.072.54-1.445a1.782 1.782 0 0 1 1.336-.558c.533 0 .945.167 1.237.5.291.335.437.798.437 1.392v.33ZM73.387 14.544H72.5v-1.662h-1.696v1.662h-.887v-3.798h.887v1.491H72.5v-1.49h.887v3.797ZM76.65 12.678l-.818.112c-.253.032-.444.092-.572.18-.128.087-.192.241-.192.461a.5.5 0 0 0 .177.395c.118.103.275.154.473.154a.885.885 0 0 0 .668-.276.965.965 0 0 0 .264-.696v-.33Zm.853 1.866h-.856v-.594h-.016c-.269.455-.663.683-1.183.683-.383 0-.683-.102-.9-.304-.216-.203-.325-.471-.325-.805 0-.717.424-1.135 1.27-1.254l1.157-.16c0-.54-.263-.811-.79-.811-.465 0-.883.156-1.256.467v-.753c.41-.237.885-.356 1.422-.356.984 0 1.477.473 1.477 1.417v2.47ZM41.09 18.14l-1.885 6.702h-1.29l-1.308-4.688a3.125 3.125 0 0 1-.1-.654h-.02a3.111 3.111 0 0 1-.115.645l-1.314 4.697H33.74l-1.922-6.702h1.251l1.247 4.907c.051.206.083.421.096.645h.024a3.59 3.59 0 0 1 .134-.645l1.41-4.907h1.175l1.304 4.945c.044.168.078.368.1.598h.02c.009-.156.046-.361.11-.617l1.222-4.926h1.18ZM42.875 24.842h-1.113v-4.786h1.113v4.786Zm-.552-5.79a.68.68 0 0 1-.467-.174.563.563 0 0 1-.194-.439c0-.177.064-.326.194-.444a.668.668 0 0 1 .467-.178.69.69 0 0 1 .48.178.574.574 0 0 1 .196.444.566.566 0 0 1-.196.432.684.684 0 0 1-.48.18ZM48.543 24.842h-1.112v-2.697c0-.894-.325-1.341-.974-1.341-.338 0-.618.124-.839.372-.22.247-.33.56-.33.937v2.73H44.17v-4.787h1.117v.795h.02c.367-.605.898-.907 1.591-.907.534 0 .942.17 1.223.507.281.338.422.827.422 1.465v2.926ZM53.109 22.655v-.626c0-.34-.114-.628-.34-.865a1.15 1.15 0 0 0-.868-.355c-.416 0-.743.15-.981.453-.238.302-.357.721-.357 1.257 0 .487.114.87.343 1.153.228.281.536.422.923.422.38 0 .688-.136.925-.409.236-.272.355-.616.355-1.03Zm1.098 2.187h-1.113v-.813h-.019c-.358.617-.91.925-1.654.925-.604 0-1.088-.214-1.45-.642-.363-.429-.545-1.012-.545-1.75 0-.792.201-1.426.602-1.903.401-.477.936-.715 1.604-.715.662 0 1.143.259 1.443.776h.02v-2.963h1.112v7.085ZM57.732 20.809c-.435 0-.778.148-1.03.444-.253.296-.38.704-.38 1.224 0 .502.128.897.384 1.185.256.288.598.433 1.026.433.438 0 .774-.142 1.01-.426.234-.283.352-.687.352-1.21 0-.527-.118-.933-.353-1.22-.235-.287-.571-.43-1.009-.43Zm-.053 4.145c-.757 0-1.362-.223-1.814-.67-.453-.447-.679-1.04-.679-1.779 0-.803.236-1.431.707-1.883.472-.452 1.107-.678 1.906-.678.767 0 1.365.22 1.794.66.428.438.642 1.048.642 1.827 0 .763-.231 1.374-.693 1.834-.462.46-1.083.69-1.863.69ZM67.812 20.056l-1.448 4.786h-1.166l-.891-3.243a2.003 2.003 0 0 1-.067-.421h-.02a1.876 1.876 0 0 1-.086.411l-.968 3.253h-1.141l-1.444-4.786h1.15l.893 3.45c.029.102.048.24.057.41h.034c.01-.13.035-.27.077-.42l.992-3.44h1.045l.883 3.464c.028.109.049.246.062.41h.033c.007-.114.03-.252.072-.41l.873-3.464h1.06ZM70.83 24.576V23.43c.105.093.23.177.376.252.146.075.3.138.463.19.163.05.326.09.489.119.163.028.313.042.45.042.48 0 .837-.078 1.072-.234a.763.763 0 0 0 .353-.678.726.726 0 0 0-.118-.413 1.215 1.215 0 0 0-.328-.32 3.475 3.475 0 0 0-.496-.279c-.19-.088-.394-.181-.612-.278a10.09 10.09 0 0 1-.652-.369 2.787 2.787 0 0 1-.525-.414 1.733 1.733 0 0 1-.35-.511 1.63 1.63 0 0 1-.127-.669c0-.314.073-.588.218-.82.146-.232.337-.424.576-.575.238-.15.509-.263.812-.336.304-.074.614-.11.93-.11.72 0 1.244.08 1.573.238v1.099c-.39-.275-.892-.412-1.505-.412-.17 0-.338.016-.506.047a1.533 1.533 0 0 0-.451.154.97.97 0 0 0-.323.276.663.663 0 0 0-.125.407c0 .15.032.278.096.387.064.11.157.21.28.3.123.09.273.178.45.264.178.085.384.178.617.278.24.121.466.25.678.383.213.134.4.282.561.444.162.162.29.342.384.54.094.198.141.423.141.675 0 .34-.07.627-.21.86-.141.234-.33.424-.569.57a2.567 2.567 0 0 1-.822.318c-.31.066-.638.098-.983.098-.115 0-.256-.008-.424-.025a6.368 6.368 0 0 1-.516-.075 4.809 4.809 0 0 1-.498-.12 1.599 1.599 0 0 1-.38-.158ZM78.517 24.79c-.218.107-.504.16-.858.16-.953 0-1.43-.446-1.43-1.337v-2.706h-.82v-.85h.82v-1.108l1.113-.309v1.416h1.175v.85h-1.175V23.3c0 .283.053.486.158.607.106.122.282.183.528.183a.778.778 0 0 0 .489-.16v.86ZM81.49 20.809c-.434 0-.778.148-1.03.444-.253.296-.379.704-.379 1.224 0 .502.128.897.384 1.185.255.288.597.433 1.026.433.438 0 .774-.142 1.009-.426.235-.283.353-.687.353-1.21 0-.527-.118-.933-.353-1.22-.235-.287-.571-.43-1.01-.43Zm-.052 4.145c-.758 0-1.363-.223-1.815-.67-.452-.447-.678-1.04-.678-1.779 0-.803.235-1.431.707-1.883.472-.452 1.107-.678 1.906-.678.767 0 1.365.22 1.793.66.428.438.642 1.048.642 1.827 0 .763-.23 1.374-.692 1.834-.462.46-1.083.69-1.863.69ZM87.816 21.09c-.134-.104-.328-.155-.58-.155-.33 0-.604.145-.825.435-.22.29-.33.683-.33 1.182v2.29h-1.113v-4.786h1.112v.986h.02c.108-.336.275-.599.5-.787.226-.189.478-.283.756-.283.201 0 .355.03.46.089v1.028ZM91.442 21.977c-.003-.39-.097-.692-.283-.909-.185-.216-.44-.325-.767-.325-.32 0-.59.114-.813.341-.222.228-.358.526-.41.893h2.273Zm1.074.767H89.17c.013.442.153.783.42 1.023.267.24.633.36 1.1.36a2.47 2.47 0 0 0 1.444-.458v.874c-.448.274-1.04.412-1.774.412-.723 0-1.29-.218-1.7-.653-.411-.434-.616-1.046-.616-1.834 0-.745.226-1.352.678-1.82.452-.47 1.014-.704 1.685-.704.672 0 1.191.21 1.559.631.367.42.551 1.005.551 1.753v.416Z" fill="#fff"></path></svg></svg>