<svg width="26" height="26" aria-label="Instagram logo." fill="none" xmlns="http://www.w3.org/2000/svg"><path d="M25.555 4.65A4.734 4.734 0 0 0 21.349.445a78.529 78.529 0 0 0-16.698 0A4.734 4.734 0 0 0 .445 4.65a78.529 78.529 0 0 0 0 16.7 4.734 4.734 0 0 0 4.205 4.205c5.561.593 11.139.593 16.7 0a4.734 4.734 0 0 0 4.205-4.206 78.53 78.53 0 0 0 0-16.699Z" fill="url(#a)"/><path d="M24.14 5.59a4.2 4.2 0 0 0-3.73-3.73 69.712 69.712 0 0 0-14.82 0 4.201 4.201 0 0 0-3.73 3.73 69.71 69.71 0 0 0 0 14.819 4.201 4.201 0 0 0 3.73 3.732c4.935.526 9.885.526 14.819 0a4.2 4.2 0 0 0 3.732-3.732 69.678 69.678 0 0 0 0-14.818Z" fill="url(#b)"/><path d="M.39 20.81c.017.18.036.36.055.54a4.734 4.734 0 0 0 4.206 4.205 78.53 78.53 0 0 0 16.698 0 4.734 4.734 0 0 0 4.206-4.205c.02-.18.038-.36.056-.54H.39Z" fill="url(#c)"/><path d="M25.555 21.35c.319-2.989.466-5.981.442-8.974l-5.943-5.943c-.742-.847-1.827-1.376-3.101-1.422-2.62-.095-5.25-.09-7.87 0-2.177.075-3.7 1.538-4.09 3.689-.069.38-.11.764-.164 1.147v6.304c.03.204.074.408.087.613.088 1.308.625 2.428 1.486 3.186l6.048 6.048c2.968.02 5.936-.127 8.9-.443a4.734 4.734 0 0 0 4.205-4.206Z" fill="url(#d)"/><path d="M25.555 21.35a4.734 4.734 0 0 1-4.206 4.205 78.647 78.647 0 0 1-8.9.443l-6.038-6.039c.7.613 1.613.986 2.672 1.026 2.62.099 5.25.096 7.87.002 2.37-.086 4.085-1.84 4.16-4.21.078-2.517.078-5.04 0-7.556-.035-1.094-.418-2.056-1.055-2.784l5.94 5.94a78.755 78.755 0 0 1-.443 8.972Z" fill="url(#e)"/><path d="M16.068 10.185a4.165 4.165 0 1 0-5.883 5.883l9.635 9.635c.51-.044 1.02-.094 1.53-.148a4.734 4.734 0 0 0 4.205-4.206c.054-.51.104-1.02.148-1.53l-9.635-9.634Z" fill="url(#f)"/><path d="m25.95 15.8-7.755-7.754a.99.99 0 1 0-1.387 1.387l9.003 9.003c.061-.878.107-1.757.139-2.635Z" fill="url(#g)"/><path d="M4.829 9.847c.054-.383.095-.768.164-1.147.39-2.15 1.913-3.614 4.09-3.689 2.62-.09 5.25-.095 7.87 0 2.37.085 4.085 1.84 4.16 4.21.078 2.516.078 5.039 0 7.556-.075 2.37-1.79 4.124-4.16 4.21-2.62.094-5.25.096-7.87-.002-2.37-.09-4.008-1.848-4.167-4.221-.013-.205-.057-.409-.087-.613V9.847Zm8.173 9.735c1.2 0 2.4.036 3.598-.009 1.878-.07 3.033-1.19 3.077-3.066a151.13 151.13 0 0 0 0-7.017c-.044-1.875-1.2-3.022-3.077-3.062-2.383-.05-4.768-.05-7.15 0-1.863.039-3.022 1.163-3.072 3.018a130.971 130.971 0 0 0 0 7.106c.05 1.855 1.209 2.952 3.072 3.021 1.182.044 2.368.009 3.552.009Z" fill="url(#h)"/><path d="M4.829 9.847c.054-.383.095-.768.164-1.147.39-2.15 1.913-3.614 4.09-3.689 2.62-.09 5.25-.095 7.87 0 2.37.085 4.085 1.84 4.16 4.21.078 2.516.078 5.039 0 7.556-.075 2.37-1.79 4.124-4.16 4.21-2.62.094-5.25.096-7.87-.002-2.37-.09-4.008-1.848-4.167-4.221-.013-.205-.057-.409-.087-.613V9.847Zm8.173 9.735c1.2 0 2.4.036 3.598-.009 1.878-.07 3.033-1.19 3.077-3.066a151.13 151.13 0 0 0 0-7.017c-.044-1.875-1.2-3.022-3.077-3.062-2.383-.05-4.768-.05-7.15 0-1.863.039-3.022 1.163-3.072 3.018a130.971 130.971 0 0 0 0 7.106c.05 1.855 1.209 2.952 3.072 3.021 1.182.044 2.368.009 3.552.009Z" fill="#fff"/><path d="M13 8.836a4.164 4.164 0 1 0 0 8.329 4.164 4.164 0 0 0 0-8.33Zm0 6.895a2.73 2.73 0 1 1 0-5.462 2.73 2.73 0 0 1 0 5.462ZM18.398 8.646a.99.99 0 1 1-1.981 0 .99.99 0 0 1 1.981 0Z" fill="#fff"/><defs><linearGradient id="b" x1="9.972" y1="11.297" x2="-34.075" y2="-13.48" gradientUnits="userSpaceOnUse"><stop stop-color="#A1B5D8" stop-opacity="0"/><stop offset=".309" stop-color="#90A2BD" stop-opacity=".31"/><stop offset=".755" stop-color="#7C8B9C" stop-opacity=".757"/><stop offset="1" stop-color="#748290"/></linearGradient><linearGradient id="c" x1="13" y1="22.951" x2="13" y2="27.004" gradientUnits="userSpaceOnUse"><stop stop-color="#FAE100" stop-opacity="0"/><stop offset=".307" stop-color="#FCA800" stop-opacity=".306"/><stop offset=".627" stop-color="#FE7300" stop-opacity=".627"/><stop offset=".869" stop-color="#FF5200" stop-opacity=".867"/><stop offset="1" stop-color="#FF4500"/></linearGradient><linearGradient id="d" x1="11.521" y1="11.484" x2="5.086" y2="5.049" gradientUnits="userSpaceOnUse"><stop stop-color="#833AB4" stop-opacity="0"/><stop offset="1" stop-color="#833AB4"/></linearGradient><linearGradient id="e" x1="17.819" y1="23.78" x2="14.607" y2="8.64" gradientUnits="userSpaceOnUse"><stop stop-color="#833AB4" stop-opacity="0"/><stop offset="1" stop-color="#833AB4"/></linearGradient><linearGradient id="f" x1="19.041" y1="19.041" x2="6.142" y2="6.142" gradientUnits="userSpaceOnUse"><stop stop-color="#833AB4" stop-opacity="0"/><stop offset="1" stop-color="#833AB4"/></linearGradient><linearGradient id="g" x1="19.998" y1="11.236" x2="15.732" y2="6.97" gradientUnits="userSpaceOnUse"><stop stop-color="#833AB4" stop-opacity="0"/><stop offset="1" stop-color="#833AB4"/></linearGradient><linearGradient id="h" x1="18.162" y1="7.874" x2="7.645" y2="18.391" gradientUnits="userSpaceOnUse"><stop stop-color="#833AB4"/><stop offset=".092" stop-color="#9C3495"/><stop offset=".293" stop-color="#DC2546"/><stop offset=".392" stop-color="#FD1D1D"/><stop offset=".559" stop-color="#FC6831"/><stop offset=".689" stop-color="#FC9B40"/><stop offset=".752" stop-color="#FCAF45"/><stop offset=".781" stop-color="#FDB750"/><stop offset=".866" stop-color="#FECB6A"/><stop offset=".942" stop-color="#FFD87A"/><stop offset="1" stop-color="#FFDC80"/></linearGradient><radialGradient id="a" cx="0" cy="0" r="1" gradientUnits="userSpaceOnUse" gradientTransform="translate(5.33 22.722) scale(28.6734)"><stop stop-color="#FAE100"/><stop offset=".054" stop-color="#FADC04"/><stop offset=".117" stop-color="#FBCE0E"/><stop offset=".183" stop-color="#FCB720"/><stop offset=".251" stop-color="#FE9838"/><stop offset=".305" stop-color="#FF7950"/><stop offset=".492" stop-color="#FF1C74"/><stop offset="1" stop-color="#6C1CD1"/></radialGradient></defs></svg>